<svg xmlns="http://www.w3.org/2000/svg" viewBox="0 0 1026 720.91"><defs><style>.cls-1,.cls-28,.cls-3{fill:#ff6366;}.cls-1{opacity:0.1;}.cls-11,.cls-2{fill:none;}.cls-2{stroke:#000;stroke-miterlimit:10;stroke-width:0.25px;}.cls-16,.cls-17,.cls-23,.cls-3,.cls-5{opacity:0.1;}.cls-10,.cls-16,.cls-17,.cls-27,.cls-28,.cls-3,.cls-5,.cls-8{isolation:isolate;}.cls-4{fill:#8dd87c;}.cls-6{fill:#ffd037;}.cls-7{fill:#a8a8a8;}.cls-8{opacity:0.2;}.cls-9{fill:#efb7b9;}.cls-10{opacity:0.05;}.cls-12{fill:#65617d;}.cls-13{fill:#dce0ed;}.cls-14{fill:#ede666;}.cls-15{fill:#f7f746;}.cls-16{fill:#e82828;}.cls-17,.cls-27{fill:#fff;}.cls-18{fill:#eace24;}.cls-19{fill:#f4e921;}.cls-20{fill:#444053;}.cls-21{fill:#ffa171;}.cls-22{fill:#965d7b;}.cls-24{fill:#efd620;}.cls-25{fill:#dda2a6;}.cls-26{fill:#b77b7f;}.cls-27{opacity:0.3;}.cls-28{font-size:26.82px;font-family:GreatVibes-Regular, Great Vibes;}</style></defs><title>deliveryGirlsDos</title><g id="city"><path class="cls-1" d="M302,132v-2h-9V705.58H496V130H389Zm29.11,60h24.68v58.72H331.11Zm25.6,122.26V373H332V314.28ZM332,414.42h24.68v58.73H332Zm25.81,163.81H333.16V519.51h24.68Zm55.84.71H389V520.22h24.68Zm0-103.87H389V416.35h24.68Zm59.74,102.45H448.74V518.8h24.68Zm0-103.87H448.74V414.93h24.68Zm0-107H448.74V307.92h24.68ZM447.53,192h24.68v58.72H447.53Zm-33.85,176H389V309.34h24.68Zm-2.51-117.32H386.49V192h24.68Z" transform="translate(-22 -79.83)"/><path class="cls-1" d="M845,445V705.58h203V445Zm38.06,28.65h24.68v58.73H883.06Zm27.51,153.5H885.89V568.43h24.68Zm27.87-153.5h24.68v58.73H938.44ZM966,627.15H941.27V568.43H966Zm33.54-153.5h24.68v58.73H999.49ZM1027,627.15h-24.68V568.43H1027Z" transform="translate(-22 -79.83)"/><path class="cls-1" d="M786,490H524V705.58H826V490ZM591.85,662.28H567.17V603.55h24.68Zm0-83.34H567.17V520.22h24.68Zm64,83.34H631.14V603.55h24.68Zm0-83.34H631.14V520.22h24.68Zm72.78,83.34H703.92V603.55H728.6Zm0-83.34H703.92V520.22H728.6Zm62.63,83.34H766.55V603.55h24.68Zm0-142.06v58.72H766.55V520.22Z" transform="translate(-22 -79.83)"/><rect class="cls-1" x="280" width="87" height="53"/><rect class="cls-2" x="547.96" y="445.32" width="8.43" height="14.64"/><rect class="cls-2" x="547.96" y="462.42" width="8.43" height="14.64"/><rect class="cls-2" x="558.96" y="462.42" width="8.43" height="14.64"/><rect class="cls-2" x="558.82" y="479.53" width="8.71" height="14.64"/><rect class="cls-2" x="547.96" y="479.53" width="8.43" height="14.64"/><rect class="cls-2" x="559.1" y="445.32" width="8.14" height="14.64"/><rect class="cls-2" x="312.82" y="239.38" width="8.43" height="14.64"/><rect class="cls-2" x="312.82" y="256.48" width="8.43" height="14.64"/><rect class="cls-2" x="323.82" y="256.48" width="8.43" height="14.64"/><rect class="cls-2" x="323.68" y="273.59" width="8.71" height="14.64"/><rect class="cls-2" x="312.82" y="273.59" width="8.43" height="14.64"/><rect class="cls-2" x="323.96" y="239.38" width="8.14" height="14.64"/><rect class="cls-2" x="312.82" y="339.53" width="8.43" height="14.64"/><rect class="cls-2" x="312.82" y="356.63" width="8.43" height="14.64"/><rect class="cls-2" x="323.82" y="356.63" width="8.43" height="14.64"/><rect class="cls-2" x="323.68" y="373.74" width="8.71" height="14.64"/><rect class="cls-2" x="312.82" y="373.74" width="8.43" height="14.64"/><rect class="cls-2" x="323.96" y="339.53" width="8.14" height="14.64"/><rect class="cls-2" x="313.95" y="444.61" width="8.43" height="14.64"/><rect class="cls-2" x="313.95" y="461.71" width="8.43" height="14.64"/><rect class="cls-2" x="324.95" y="461.71" width="8.43" height="14.64"/><rect class="cls-2" x="324.81" y="478.82" width="8.71" height="14.64"/><rect class="cls-2" x="313.95" y="478.82" width="8.43" height="14.64"/><rect class="cls-2" x="325.09" y="444.61" width="8.14" height="14.64"/><rect class="cls-2" x="611.93" y="445.32" width="8.43" height="14.64"/><rect class="cls-2" x="611.93" y="462.42" width="8.43" height="14.64"/><rect class="cls-2" x="622.93" y="462.42" width="8.43" height="14.64"/><rect class="cls-2" x="622.78" y="479.53" width="8.71" height="14.64"/><rect class="cls-2" x="611.93" y="479.53" width="8.43" height="14.64"/><rect class="cls-2" x="623.07" y="445.32" width="8.14" height="14.64"/><rect class="cls-2" x="684.71" y="445.32" width="8.43" height="14.64"/><rect class="cls-2" x="684.71" y="462.42" width="8.43" height="14.64"/><rect class="cls-2" x="695.71" y="462.42" width="8.43" height="14.64"/><rect class="cls-2" x="695.57" y="479.53" width="8.71" height="14.64"/><rect class="cls-2" x="684.71" y="479.53" width="8.43" height="14.64"/><rect class="cls-2" x="695.85" y="445.32" width="8.14" height="14.64"/><rect class="cls-2" x="747.33" y="445.32" width="8.43" height="14.64"/><rect class="cls-2" x="747.33" y="462.42" width="8.43" height="14.64"/><rect class="cls-2" x="758.33" y="462.42" width="8.43" height="14.64"/><rect class="cls-2" x="758.19" y="479.53" width="8.71" height="14.64"/><rect class="cls-2" x="747.33" y="479.53" width="8.43" height="14.64"/><rect class="cls-2" x="758.48" y="445.32" width="8.14" height="14.64"/><rect class="cls-2" x="547.96" y="528.65" width="8.43" height="14.64"/><rect class="cls-2" x="547.96" y="545.76" width="8.43" height="14.64"/><rect class="cls-2" x="558.96" y="545.76" width="8.43" height="14.64"/><rect class="cls-2" x="558.82" y="562.87" width="8.71" height="14.64"/><rect class="cls-2" x="547.96" y="562.87" width="8.43" height="14.64"/><rect class="cls-2" x="559.1" y="528.65" width="8.14" height="14.64"/><rect class="cls-2" x="611.93" y="528.65" width="8.43" height="14.64"/><rect class="cls-2" x="611.93" y="545.76" width="8.43" height="14.64"/><rect class="cls-2" x="622.93" y="545.76" width="8.43" height="14.64"/><rect class="cls-2" x="622.78" y="562.87" width="8.71" height="14.64"/><rect class="cls-2" x="611.93" y="562.87" width="8.43" height="14.64"/><rect class="cls-2" x="623.07" y="528.65" width="8.14" height="14.64"/><rect class="cls-2" x="684.71" y="528.65" width="8.43" height="14.64"/><rect class="cls-2" x="684.71" y="545.76" width="8.43" height="14.64"/><rect class="cls-2" x="695.71" y="545.76" width="8.43" height="14.64"/><rect class="cls-2" x="695.57" y="562.87" width="8.71" height="14.64"/><rect class="cls-2" x="684.71" y="562.87" width="8.43" height="14.64"/><rect class="cls-2" x="695.85" y="528.65" width="8.14" height="14.64"/><rect class="cls-2" x="747.33" y="528.65" width="8.43" height="14.64"/><rect class="cls-2" x="747.33" y="545.76" width="8.43" height="14.64"/><rect class="cls-2" x="758.33" y="545.76" width="8.43" height="14.64"/><rect class="cls-2" x="758.19" y="562.87" width="8.71" height="14.64"/><rect class="cls-2" x="747.33" y="562.87" width="8.43" height="14.64"/><rect class="cls-2" x="758.48" y="528.65" width="8.14" height="14.64"/><rect class="cls-2" x="369.79" y="234.44" width="8.43" height="14.64"/><rect class="cls-2" x="369.79" y="251.55" width="8.43" height="14.64"/><rect class="cls-2" x="380.79" y="251.55" width="8.43" height="14.64"/><rect class="cls-2" x="380.65" y="268.65" width="8.71" height="14.64"/><rect class="cls-2" x="369.79" y="268.65" width="8.43" height="14.64"/><rect class="cls-2" x="380.93" y="234.44" width="8.14" height="14.64"/><rect class="cls-2" x="429.53" y="233.02" width="8.43" height="14.64"/><rect class="cls-2" x="429.53" y="250.13" width="8.43" height="14.64"/><rect class="cls-2" x="440.53" y="250.13" width="8.43" height="14.64"/><rect class="cls-2" x="440.39" y="267.24" width="8.71" height="14.64"/><rect class="cls-2" x="429.53" y="267.24" width="8.43" height="14.64"/><rect class="cls-2" x="440.67" y="233.02" width="8.14" height="14.64"/><rect class="cls-2" x="311.89" y="117.12" width="8.43" height="14.64"/><rect class="cls-2" x="311.89" y="134.23" width="8.43" height="14.64"/><rect class="cls-2" x="322.89" y="134.23" width="8.43" height="14.64"/><rect class="cls-2" x="322.75" y="151.33" width="8.71" height="14.64"/><rect class="cls-2" x="311.89" y="151.33" width="8.43" height="14.64"/><rect class="cls-2" x="323.03" y="117.12" width="8.14" height="14.64"/><rect class="cls-2" x="367.27" y="117.12" width="8.43" height="14.64"/><rect class="cls-2" x="367.27" y="134.23" width="8.43" height="14.64"/><rect class="cls-2" x="378.27" y="134.23" width="8.43" height="14.64"/><rect class="cls-2" x="378.13" y="151.33" width="8.71" height="14.64"/><rect class="cls-2" x="367.27" y="151.33" width="8.43" height="14.64"/><rect class="cls-2" x="378.41" y="117.12" width="8.14" height="14.64"/><rect class="cls-2" x="428.32" y="117.12" width="8.43" height="14.64"/><rect class="cls-2" x="428.32" y="134.23" width="8.43" height="14.64"/><rect class="cls-2" x="439.32" y="134.23" width="8.43" height="14.64"/><rect class="cls-2" x="439.18" y="151.33" width="8.71" height="14.64"/><rect class="cls-2" x="428.32" y="151.33" width="8.43" height="14.64"/><rect class="cls-2" x="439.46" y="117.12" width="8.14" height="14.64"/><rect class="cls-2" x="863.85" y="398.75" width="8.43" height="14.64"/><rect class="cls-2" x="863.85" y="415.86" width="8.43" height="14.64"/><rect class="cls-2" x="874.85" y="415.86" width="8.43" height="14.64"/><rect class="cls-2" x="874.71" y="432.97" width="8.71" height="14.64"/><rect class="cls-2" x="863.85" y="432.97" width="8.43" height="14.64"/><rect class="cls-2" x="874.99" y="398.75" width="8.14" height="14.64"/><rect class="cls-2" x="919.23" y="398.75" width="8.43" height="14.64"/><rect class="cls-2" x="919.23" y="415.86" width="8.43" height="14.64"/><rect class="cls-2" x="930.23" y="415.86" width="8.43" height="14.64"/><rect class="cls-2" x="930.09" y="432.97" width="8.71" height="14.64"/><rect class="cls-2" x="919.23" y="432.97" width="8.43" height="14.64"/><rect class="cls-2" x="930.37" y="398.75" width="8.14" height="14.64"/><rect class="cls-2" x="980.28" y="398.75" width="8.43" height="14.64"/><rect class="cls-2" x="980.28" y="415.86" width="8.43" height="14.64"/><rect class="cls-2" x="991.28" y="415.86" width="8.43" height="14.64"/><rect class="cls-2" x="991.13" y="432.97" width="8.71" height="14.64"/><rect class="cls-2" x="980.28" y="432.97" width="8.43" height="14.64"/><rect class="cls-2" x="991.42" y="398.75" width="8.14" height="14.64"/><rect class="cls-2" x="866.68" y="493.53" width="8.43" height="14.64"/><rect class="cls-2" x="866.68" y="510.64" width="8.43" height="14.64"/><rect class="cls-2" x="877.68" y="510.64" width="8.43" height="14.64"/><rect class="cls-2" x="877.53" y="527.74" width="8.71" height="14.64"/><rect class="cls-2" x="866.68" y="527.74" width="8.43" height="14.64"/><rect class="cls-2" x="877.82" y="493.53" width="8.14" height="14.64"/><rect class="cls-2" x="922.06" y="493.53" width="8.43" height="14.64"/><rect class="cls-2" x="922.06" y="510.64" width="8.43" height="14.64"/><rect class="cls-2" x="933.06" y="510.64" width="8.43" height="14.64"/><rect class="cls-2" x="932.91" y="527.74" width="8.71" height="14.64"/><rect class="cls-2" x="922.06" y="527.74" width="8.43" height="14.64"/><rect class="cls-2" x="933.2" y="493.53" width="8.14" height="14.64"/><rect class="cls-2" x="983.1" y="493.53" width="8.43" height="14.64"/><rect class="cls-2" x="983.1" y="510.64" width="8.43" height="14.64"/><rect class="cls-2" x="994.1" y="510.64" width="8.43" height="14.64"/><rect class="cls-2" x="993.96" y="527.74" width="8.71" height="14.64"/><rect class="cls-2" x="983.1" y="527.74" width="8.43" height="14.64"/><rect class="cls-2" x="994.24" y="493.53" width="8.14" height="14.64"/><rect class="cls-2" x="369.79" y="341.45" width="8.43" height="14.64"/><rect class="cls-2" x="369.79" y="358.55" width="8.43" height="14.64"/><rect class="cls-2" x="380.79" y="358.55" width="8.43" height="14.64"/><rect class="cls-2" x="380.65" y="375.66" width="8.71" height="14.64"/><rect class="cls-2" x="369.79" y="375.66" width="8.43" height="14.64"/><rect class="cls-2" x="380.93" y="341.45" width="8.14" height="14.64"/><rect class="cls-2" x="429.53" y="340.03" width="8.43" height="14.64"/><rect class="cls-2" x="429.53" y="357.14" width="8.43" height="14.64"/><rect class="cls-2" x="440.53" y="357.14" width="8.43" height="14.64"/><rect class="cls-2" x="440.39" y="374.24" width="8.71" height="14.64"/><rect class="cls-2" x="429.53" y="374.24" width="8.43" height="14.64"/><rect class="cls-2" x="440.67" y="340.03" width="8.14" height="14.64"/><rect class="cls-2" x="369.79" y="445.32" width="8.43" height="14.64"/><rect class="cls-2" x="369.79" y="462.42" width="8.43" height="14.64"/><rect class="cls-2" x="380.79" y="462.42" width="8.43" height="14.64"/><rect class="cls-2" x="380.65" y="479.53" width="8.71" height="14.64"/><rect class="cls-2" x="369.79" y="479.53" width="8.43" height="14.64"/><rect class="cls-2" x="380.93" y="445.32" width="8.14" height="14.64"/><rect class="cls-2" x="429.53" y="443.9" width="8.43" height="14.64"/><rect class="cls-2" x="429.53" y="461.01" width="8.43" height="14.64"/><rect class="cls-2" x="440.53" y="461.01" width="8.43" height="14.64"/><rect class="cls-2" x="440.39" y="478.11" width="8.71" height="14.64"/><rect class="cls-2" x="429.53" y="478.11" width="8.43" height="14.64"/><rect class="cls-2" x="440.67" y="443.9" width="8.14" height="14.64"/><path class="cls-1" d="M232,256v1H196v-1H22V705.58H259V256Zm-60.68,97.43H196v58.72H171.32Zm-95,273.14H51.66V567.85H76.34Zm4.21-107.21H55.87V460.64H80.55Zm1.13-107.21H57V353.43H81.68Zm34.14-58.72H140.5v58.72H115.82Zm26,273.14H117.12V567.85h24.69Zm0-107.21H117.12V460.64h24.69Zm53.06,107.21H170.19V567.85h24.68Zm2.44-107.21H172.62V460.64h24.69Zm21.22-58.72h24.68v58.72H218.53Zm25.81,165.93H219.66V567.85h24.68Zm0-214.42H219.66V353.43h24.68Z" transform="translate(-22 -79.83)"/><rect class="cls-1" x="173.91" y="123.18" width="36" height="54"/><rect class="cls-1" x="981.84" y="314.45" width="36" height="54"/><path class="cls-2" d="M57,412.15H81.68V353.43H57Zm13.93-53.79h8.14V373H70.93Zm-.14,17.11h8.42v14.64H70.79Zm-.14,17.1h8.7v14.64h-8.7ZM59.79,358.36h8.42V373H59.79Zm0,17.11h8.42v14.64H59.79Zm0,17.1h8.42v14.64H59.79Z" transform="translate(-22 -79.83)"/><rect class="cls-2" x="37.79" y="278.53" width="8.43" height="14.64"/><rect class="cls-2" x="37.79" y="295.63" width="8.43" height="14.64"/><rect class="cls-2" x="48.79" y="295.63" width="8.43" height="14.64"/><rect class="cls-2" x="48.65" y="312.74" width="8.71" height="14.64"/><rect class="cls-2" x="37.79" y="312.74" width="8.43" height="14.64"/><rect class="cls-2" x="48.93" y="278.53" width="8.14" height="14.64"/><path class="cls-2" d="M140.5,353.43H115.82v58.72H140.5Zm-10.75,4.93h8.14V373h-8.14Zm-.14,17.11H138v14.64h-8.42ZM127,407.21h-8.42V392.57H127Zm0-17.1h-8.42V375.47H127ZM127,373h-8.42V358.36H127Zm11.14,34.21h-8.71V392.57h8.71Z" transform="translate(-22 -79.83)"/><rect class="cls-2" x="96.61" y="278.53" width="8.43" height="14.64"/><rect class="cls-2" x="96.61" y="295.63" width="8.43" height="14.64"/><rect class="cls-2" x="107.61" y="295.63" width="8.43" height="14.64"/><rect class="cls-2" x="107.46" y="312.74" width="8.71" height="14.64"/><rect class="cls-2" x="96.61" y="312.74" width="8.43" height="14.64"/><rect class="cls-2" x="107.75" y="278.53" width="8.14" height="14.64"/><path class="cls-2" d="M196,353.43H171.32v58.72H196Zm-10.75,4.93h8.14V373h-8.14Zm-.14,17.11h8.42v14.64h-8.42Zm-2.58,31.74h-8.42V392.57h8.42Zm0-17.1h-8.42V375.47h8.42Zm0-17.11h-8.42V358.36h8.42Zm11.14,34.21H185V392.57h8.71Z" transform="translate(-22 -79.83)"/><rect class="cls-2" x="152.11" y="278.53" width="8.43" height="14.64"/><rect class="cls-2" x="152.11" y="295.63" width="8.43" height="14.64"/><rect class="cls-2" x="163.11" y="295.63" width="8.43" height="14.64"/><rect class="cls-2" x="162.96" y="312.74" width="8.71" height="14.64"/><rect class="cls-2" x="152.11" y="312.74" width="8.43" height="14.64"/><rect class="cls-2" x="163.25" y="278.53" width="8.14" height="14.64"/><path class="cls-2" d="M219.66,412.15h24.68V353.43H219.66ZM389,368.06h24.68V309.34H389ZM332,473.15h24.68V414.42H332Zm57,1.92h24.68V416.35H389Zm59.74-108.42h24.68V307.92H448.74Zm0,107h24.68V414.93H448.74Zm0,103.87h24.68V518.8H448.74Zm-59.74.71h24.68V519.51H389Zm178.17.71h24.68V520.22H567.17Zm64,0h24.68V520.22H631.14Zm72.78,0H728.6V520.22H703.92Zm62.63,0h24.68V520.22H766.55Zm0,83.34h24.68V603.55H766.55Zm119.34-35.13h24.68V568.43H885.89Zm55.38,0H966V568.43H941.27Zm61.05,0H1027V568.43h-24.68Zm-2.83-94.77h24.68V473.65H999.49Zm-61,0h24.68V473.65H938.44ZM703.92,662.28H728.6V603.55H703.92Zm179.14-129.9h24.68V473.65H883.06ZM631.14,662.28h24.68V603.55H631.14Zm-64,0h24.68V603.55H567.17Zm-234-84h24.68V519.51H333.16ZM332,373h24.68V314.28H332Zm-98.44-14.64h8.14V373h-8.14Zm-.14,17.11h8.42v14.64h-8.42Zm-.14,17.1H242v14.64h-8.7Zm-10.86-34.21h8.42V373h-8.42Zm0,17.11h8.42v14.64h-8.42Zm0,17.1h8.42v14.64h-8.42Z" transform="translate(-22 -79.83)"/><rect class="cls-2" x="200.45" y="278.53" width="8.43" height="14.64"/><rect class="cls-2" x="200.45" y="295.63" width="8.43" height="14.64"/><rect class="cls-2" x="211.45" y="295.63" width="8.43" height="14.64"/><rect class="cls-2" x="211.31" y="312.74" width="8.71" height="14.64"/><rect class="cls-2" x="200.45" y="312.74" width="8.43" height="14.64"/><rect class="cls-2" x="211.59" y="278.53" width="8.14" height="14.64"/><path class="cls-2" d="M243.21,460.64H218.53v58.72h24.68Zm-10.75,4.93h8.14v14.64h-8.14Zm-.14,17.11h8.42v14.64h-8.42Zm-2.58,31.75h-8.42V499.79h8.42Zm0-17.11h-8.42V482.68h8.42Zm0-17.11h-8.42V465.57h8.42Zm11.15,34.22h-8.71V499.79h8.71Z" transform="translate(-22 -79.83)"/><rect class="cls-2" x="199.32" y="385.74" width="8.43" height="14.64"/><rect class="cls-2" x="199.32" y="402.85" width="8.43" height="14.64"/><rect class="cls-2" x="210.32" y="402.85" width="8.43" height="14.64"/><rect class="cls-2" x="210.18" y="419.95" width="8.71" height="14.64"/><rect class="cls-2" x="199.32" y="419.95" width="8.43" height="14.64"/><rect class="cls-2" x="210.46" y="385.74" width="8.14" height="14.64"/><path class="cls-2" d="M172.62,519.36h24.69V460.64H172.62Zm13.93-53.79h8.15v14.64h-8.15Zm-.14,17.11h8.43v14.64h-8.43Zm-.14,17.11H195v14.64h-8.71Zm-10.86-34.22h8.43v14.64h-8.43Zm0,17.11h8.43v14.64h-8.43Zm0,17.11h8.43v14.64h-8.43Z" transform="translate(-22 -79.83)"/><rect class="cls-2" x="153.41" y="385.74" width="8.43" height="14.64"/><rect class="cls-2" x="153.41" y="402.85" width="8.43" height="14.64"/><rect class="cls-2" x="164.41" y="402.85" width="8.43" height="14.64"/><rect class="cls-2" x="164.27" y="419.95" width="8.71" height="14.64"/><rect class="cls-2" x="153.41" y="419.95" width="8.43" height="14.64"/><rect class="cls-2" x="164.55" y="385.74" width="8.14" height="14.64"/><path class="cls-2" d="M117.12,519.36h24.69V460.64H117.12Zm13.93-53.79h8.15v14.64h-8.15Zm-.14,17.11h8.43v14.64h-8.43Zm-.14,17.11h8.71v14.64h-8.71Zm-10.86-34.22h8.43v14.64h-8.43Zm0,17.11h8.43v14.64h-8.43Zm0,17.11h8.43v14.64h-8.43Z" transform="translate(-22 -79.83)"/><rect class="cls-2" x="97.91" y="385.74" width="8.43" height="14.64"/><rect class="cls-2" x="97.91" y="402.85" width="8.43" height="14.64"/><rect class="cls-2" x="108.91" y="402.85" width="8.43" height="14.64"/><rect class="cls-2" x="108.77" y="419.95" width="8.71" height="14.64"/><rect class="cls-2" x="97.91" y="419.95" width="8.43" height="14.64"/><rect class="cls-2" x="109.05" y="385.74" width="8.14" height="14.64"/><path class="cls-2" d="M55.87,519.36H80.55V460.64H55.87ZM69.8,465.57h8.14v14.64H69.8Zm-.14,17.11h8.43v14.64H69.66Zm-.14,17.11h8.71v14.64H69.52ZM58.66,465.57h8.43v14.64H58.66Zm0,17.11h8.43v14.64H58.66Zm0,17.11h8.43v14.64H58.66Z" transform="translate(-22 -79.83)"/><rect class="cls-2" x="36.66" y="385.74" width="8.43" height="14.64"/><rect class="cls-2" x="36.66" y="402.85" width="8.43" height="14.64"/><rect class="cls-2" x="47.66" y="402.85" width="8.43" height="14.64"/><rect class="cls-2" x="47.52" y="419.95" width="8.71" height="14.64"/><rect class="cls-2" x="36.66" y="419.95" width="8.43" height="14.64"/><rect class="cls-2" x="47.8" y="385.74" width="8.14" height="14.64"/><path class="cls-2" d="M51.66,626.57H76.34V567.85H51.66Zm13.93-53.78h8.14v14.64H65.59Zm-.14,17.1h8.42v14.64H65.45ZM65.31,607H74v14.64h-8.7ZM54.45,572.79h8.42v14.64H54.45Zm0,17.1h8.42v14.64H54.45Zm0,17.11h8.42v14.64H54.45Z" transform="translate(-22 -79.83)"/><rect class="cls-2" x="32.45" y="492.95" width="8.43" height="14.64"/><rect class="cls-2" x="32.45" y="510.06" width="8.43" height="14.64"/><rect class="cls-2" x="43.45" y="510.06" width="8.43" height="14.64"/><rect class="cls-2" x="43.31" y="527.17" width="8.71" height="14.64"/><rect class="cls-2" x="32.45" y="527.17" width="8.43" height="14.64"/><rect class="cls-2" x="43.59" y="492.95" width="8.14" height="14.64"/><path class="cls-2" d="M117.12,626.57h24.69V567.85H117.12Zm13.93-53.78h8.15v14.64h-8.15Zm-.14,17.1h8.43v14.64h-8.43ZM130.77,607h8.71v14.64h-8.71Zm-10.86-34.21h8.43v14.64h-8.43Zm0,17.1h8.43v14.64h-8.43Zm0,17.11h8.43v14.64h-8.43Z" transform="translate(-22 -79.83)"/><rect class="cls-2" x="97.91" y="492.95" width="8.43" height="14.64"/><rect class="cls-2" x="97.91" y="510.06" width="8.43" height="14.64"/><rect class="cls-2" x="108.91" y="510.06" width="8.43" height="14.64"/><rect class="cls-2" x="108.77" y="527.17" width="8.71" height="14.64"/><rect class="cls-2" x="97.91" y="527.17" width="8.43" height="14.64"/><rect class="cls-2" x="109.05" y="492.95" width="8.14" height="14.64"/><path class="cls-2" d="M170.19,626.57h24.68V567.85H170.19Zm13.93-53.78h8.14v14.64h-8.14Zm-.14,17.1h8.42v14.64H184ZM183.84,607h8.71v14.64h-8.71ZM173,572.79h8.42v14.64H173Zm0,17.1h8.42v14.64H173ZM173,607h8.42v14.64H173Z" transform="translate(-22 -79.83)"/><rect class="cls-2" x="150.98" y="492.95" width="8.43" height="14.64"/><rect class="cls-2" x="150.98" y="510.06" width="8.43" height="14.64"/><rect class="cls-2" x="161.98" y="510.06" width="8.43" height="14.64"/><rect class="cls-2" x="161.84" y="527.17" width="8.71" height="14.64"/><rect class="cls-2" x="150.98" y="527.17" width="8.43" height="14.64"/><rect class="cls-2" x="162.12" y="492.95" width="8.14" height="14.64"/><path class="cls-2" d="M219.66,626.57h24.68V567.85H219.66Zm13.93-53.78h8.14v14.64h-8.14Zm-.14,17.1h8.42v14.64h-8.42ZM233.31,607H242v14.64h-8.7Zm-10.86-34.21h8.42v14.64h-8.42Zm0,17.1h8.42v14.64h-8.42Zm0,17.11h8.42v14.64h-8.42Z" transform="translate(-22 -79.83)"/><rect class="cls-2" x="200.45" y="492.95" width="8.43" height="14.64"/><rect class="cls-2" x="200.45" y="510.06" width="8.43" height="14.64"/><rect class="cls-2" x="211.45" y="510.06" width="8.43" height="14.64"/><rect class="cls-2" x="211.31" y="527.17" width="8.71" height="14.64"/><rect class="cls-2" x="200.45" y="527.17" width="8.43" height="14.64"/><rect class="cls-2" x="211.59" y="492.95" width="8.14" height="14.64"/></g><g id="Capa_1" data-name="Capa 1"><ellipse class="cls-3" cx="154.33" cy="668.68" rx="19.24" ry="2.64"/><ellipse class="cls-3" cx="228.02" cy="676.16" rx="19.24" ry="2.64"/><ellipse class="cls-3" cx="314.83" cy="666.04" rx="19.24" ry="2.64"/><ellipse class="cls-3" cx="198.53" cy="697.44" rx="13.68" ry="1.88"/><ellipse class="cls-3" cx="275.02" cy="695.56" rx="13.68" ry="1.88"/><path class="cls-4" d="M304.55,771.12a5.47,5.47,0,0,0,1.8-2.72,2.41,2.41,0,0,0-1.26-2.76c-1.15-.45-2.39.36-3.32,1.16s-2,1.74-3.24,1.57a4.92,4.92,0,0,0,1.49-4.61,1.94,1.94,0,0,0-.41-.94c-.64-.68-1.81-.38-2.57.15-2.45,1.72-3.12,5-3.14,8a15.17,15.17,0,0,1,0-3.3,3.38,3.38,0,0,0-1.25-2.92,3.63,3.63,0,0,0-1.88-.45,4.07,4.07,0,0,0-3.07.87,3,3,0,0,0,.12,3.77A12,12,0,0,0,291,771.5a7.08,7.08,0,0,1,2.23,2.16,2.2,2.2,0,0,1,.17.39h6.88A19.47,19.47,0,0,0,304.55,771.12Z" transform="translate(-22 -79.83)"/><path class="cls-4" d="M184.12,745.22a5.36,5.36,0,0,0,1.81-2.71,2.43,2.43,0,0,0-1.26-2.78c-1.16-.44-2.39.36-3.33,1.17s-2,1.72-3.23,1.55a4.87,4.87,0,0,0,1.49-4.6,1.88,1.88,0,0,0-.42-.93c-.65-.69-1.81-.4-2.57.15-2.45,1.71-3.13,5-3.14,8a15.25,15.25,0,0,1-.05-3.31,3.36,3.36,0,0,0-1.23-2.91,3.81,3.81,0,0,0-1.9-.45,3.91,3.91,0,0,0-3.07.88,3,3,0,0,0,.12,3.72,11.76,11.76,0,0,0,3.19,2.55,7,7,0,0,1,2.23,2.16,1.71,1.71,0,0,1,.17.39h6.88A18.91,18.91,0,0,0,184.12,745.22Z" transform="translate(-22 -79.83)"/><path class="cls-4" d="M224.26,771.12a5.47,5.47,0,0,0,1.8-2.72,2.41,2.41,0,0,0-1.26-2.76c-1.15-.45-2.39.36-3.32,1.16s-2,1.74-3.23,1.57a5,5,0,0,0,1.49-4.61,2,2,0,0,0-.42-.94c-.64-.68-1.8-.38-2.57.15-2.44,1.72-3.12,5-3.14,8a15.17,15.17,0,0,1,0-3.3,3.37,3.37,0,0,0-1.24-2.92,3.67,3.67,0,0,0-1.89-.45,4.08,4.08,0,0,0-3.07.87,3.06,3.06,0,0,0,.12,3.77,12.15,12.15,0,0,0,3.17,2.54,7.22,7.22,0,0,1,2.24,2.16,3.2,3.2,0,0,1,.16.39h6.88A19.24,19.24,0,0,0,224.26,771.12Z" transform="translate(-22 -79.83)"/><path class="cls-4" d="M338.08,718.77s2.58,3.38-1.19,8.47-6.87,9.39-5.62,12.56c0,0,5.69-9.45,10.31-9.59S343.14,724.46,338.08,718.77Z" transform="translate(-22 -79.83)"/><path class="cls-5" d="M338.08,718.77a4.38,4.38,0,0,1,.53,1.06c4.52,5.31,6.92,10.25,2.58,10.38-4.05.12-8.89,7.35-10.05,9.17,0,.14.08.28.13.42s5.69-9.45,10.31-9.59S343.14,724.46,338.08,718.77Z" transform="translate(-22 -79.83)"/><path class="cls-6" d="M342.87,723.07c0,1.19-.13,2.15-.3,2.15s-.29-1-.29-2.15.17-.62.33-.62S342.87,721.89,342.87,723.07Z" transform="translate(-22 -79.83)"/><path class="cls-6" d="M344.52,724.49c-1,.57-1.95.91-2,.74s.7-.74,1.75-1.28.62-.16.7,0S345.56,723.92,344.52,724.49Z" transform="translate(-22 -79.83)"/><path class="cls-4" d="M324.46,718.77s-2.58,3.38,1.19,8.47,6.88,9.39,5.62,12.56c0,0-5.68-9.45-10.31-9.59S319.4,724.46,324.46,718.77Z" transform="translate(-22 -79.83)"/><path class="cls-5" d="M324.46,718.77a4.35,4.35,0,0,0-.52,1.06c-4.51,5.31-6.92,10.25-2.58,10.38,4,.12,8.89,7.35,10.05,9.17,0,.14-.09.28-.14.42s-5.68-9.45-10.31-9.59S319.4,724.46,324.46,718.77Z" transform="translate(-22 -79.83)"/><path class="cls-6" d="M319.67,723.07c0,1.19.14,2.15.3,2.15s.3-1,.3-2.15-.17-.62-.33-.62S319.67,721.89,319.67,723.07Z" transform="translate(-22 -79.83)"/><path class="cls-6" d="M318,724.49c1,.57,2,.91,2,.74s-.75-.74-1.74-1.28-.64-.16-.75,0S317,723.92,318,724.49Z" transform="translate(-22 -79.83)"/><path class="cls-7" d="M320.49,739.35s7.21-.21,9.38-1.76,11.09-3.4,11.63-.92,10.83,12.34,2.69,12.41-18.9-1.27-21.07-2.59S320.49,739.35,320.49,739.35Z" transform="translate(-22 -79.83)"/><path class="cls-8" d="M344.34,748.21c-8.14.07-18.91-1.26-21.08-2.58-1.65-1-2.31-4.61-2.52-6.28h-.25s.46,5.82,2.63,7.13,12.94,2.66,21.07,2.59c2.36,0,3.16-.86,3.12-2.09C347,747.74,346.12,748.2,344.34,748.21Z" transform="translate(-22 -79.83)"/><ellipse class="cls-3" cx="589.65" cy="709.78" rx="245.44" ry="11.13"/><path class="cls-9" d="M586.65,456.82s15.65,29.6,16.86,33.82a5.7,5.7,0,0,0,5.28,4.22s15.58,3.73,19.31,4.23,36,3.22,36,3.22,8.2.26,9.19-2.72c.91-2.73,16.74-17.06,25.91-4.56a9.13,9.13,0,0,1,1.32,8.14c-1.68,5.36-5.14,13.88-8.85,8.58-5.21-7.45-11.28-5.35-11.28-1.38s-8.34,2.49-11.07,3c-1.49.31-6.62,1.67-11.05,2.86a80.74,80.74,0,0,1-15.74,2.62c-8.8.57-21.77,1.05-26.36-.69-5.55-2.11-15.23-2.59-19.38-2.7a6.32,6.32,0,0,1-3.77-1.36,58.93,58.93,0,0,1-14.35-16.31c-6.45-11.17-19.74-34.32-18.85-41S586.65,456.82,586.65,456.82Z" transform="translate(-22 -79.83)"/><path class="cls-10" d="M586.65,456.82s15.65,29.6,16.86,33.82a5.7,5.7,0,0,0,5.28,4.22s15.58,3.73,19.31,4.23,36,3.22,36,3.22,8.2.26,9.19-2.72c.91-2.73,16.74-17.06,25.91-4.56a9.13,9.13,0,0,1,1.32,8.14c-1.68,5.36-5.14,13.88-8.85,8.58-5.21-7.45-11.28-5.35-11.28-1.38s-8.34,2.49-11.07,3c-1.49.31-6.62,1.67-11.05,2.86a80.74,80.74,0,0,1-15.74,2.62c-8.8.57-21.77,1.05-26.36-.69-5.55-2.11-15.23-2.59-19.38-2.7a6.32,6.32,0,0,1-3.77-1.36,58.93,58.93,0,0,1-14.35-16.31c-6.45-11.17-19.74-34.32-18.85-41S586.65,456.82,586.65,456.82Z" transform="translate(-22 -79.83)"/><path class="cls-11" d="M766.14,680.46c-7.08,7.7-12.3,10.73-12,2.6.74-24.58-42.47-135.75-42.47-135.75l12.78-1C752.28,594.39,762.66,643.81,766.14,680.46Z" transform="translate(-22 -79.83)"/><path class="cls-12" d="M827.1,734.1a61.47,61.47,0,0,1-122.71,5.22c-.09-1-.15-2-.18-3v-.06c0-.74-.05-1.48-.05-2.23a61.47,61.47,0,0,1,122.94,0h0Z" transform="translate(-22 -79.83)"/><circle class="cls-13" cx="743.63" cy="654.23" r="33.53"/><circle class="cls-12" cx="743.63" cy="654.23" r="20.12"/><path class="cls-12" d="M604.2,617.33l-148,3V598.5c1.33-17.56,19.37-23.72,35.76-25.65a102.58,102.58,0,0,1,38.25,2.87c31.4,8.31,51.41,9.92,61.26,10.08a9.39,9.39,0,0,1,9.09,7.64c.47,2.5.93,5.22,1.37,7.9.32,2.1.64,4.17.92,6.1C603.66,613,604.2,617.33,604.2,617.33Z" transform="translate(-22 -79.83)"/><path class="cls-14" d="M722.29,738H414.81a12.08,12.08,0,0,1-11.21-7.24c-2.32-5.54.92-9.07,4.38-11.18a34.82,34.82,0,0,0,15.14-18.52c3.27-9.69,6.48-24.84,7.74-48.52C432.15,628.08,441,616,450.6,610.1h0c12.38-7.57,25.94-4.73,25.94-4.73l124.68,1a23.69,23.69,0,0,1,6.08,4c11.11,10.34-5.09,23.84-5.09,23.84-34.77,36.75-8.45,74-8.45,74h63.8A58.7,58.7,0,0,0,691,698c8.62-6,11.92-11.72,13.25-15.2,1-2.67,2-5.33,3.17-7.91,16.74-36.29-3.45-95.37-12.16-117.41-2.16-5.49-3.61-8.69-3.61-8.69l20-1.49,12.66-1h.13c27.88,48.08,38.24,97.5,41.72,134.11q.5,5.17.81,10A44.69,44.69,0,0,1,725.23,738h0C724.25,738,723.27,738,722.29,738Z" transform="translate(-22 -79.83)"/><path class="cls-5" d="M602.85,607.44H456.19v-6.1H601.92C602.25,603.38,602.56,605.47,602.85,607.44Z" transform="translate(-22 -79.83)"/><path class="cls-5" d="M607.31,610.42H451.79a3,3,0,0,1-1.18-.24c12.37-7.57,25.94-4.73,25.94-4.73l124.67,1A24.29,24.29,0,0,1,607.31,610.42Z" transform="translate(-22 -79.83)"/><rect class="cls-13" x="372.32" y="522.96" width="217.33" height="6.1" rx="3.05"/><path class="cls-5" d="M766.14,680.46c-7.08,7.7-12.3,10.73-12,2.6.74-24.58-42.47-135.75-42.47-135.75l12.78-1C752.28,594.39,762.66,643.81,766.14,680.46Z" transform="translate(-22 -79.83)"/><path class="cls-5" d="M826.72,727.33c-7.34,1.76-16.39,3.54-27.56,5.21q-6.24.91-13.42,1.76c-11.42,1.36-24.63,2.54-39.89,3.45q-6.48.39-13.46.71-13.08.6-28,.91l-.19-3v0c13.9-5.61,35.77-20.58,39.28-59.61a61.5,61.5,0,0,1,83.24,50.62Z" transform="translate(-22 -79.83)"/><path class="cls-15" d="M692.62,738s70.56-7.65,46.25-115.16c0,0,34.86,32,56.55,49.73s60.35,42.25,60.35,42.25S832.69,736.42,692.62,738Z" transform="translate(-22 -79.83)"/><path class="cls-16" d="M692.62,738s70.56-7.65,46.25-115.16c0,0,34.86,32,56.55,49.73s60.35,42.25,60.35,42.25S832.69,736.42,692.62,738Z" transform="translate(-22 -79.83)"/><circle class="cls-12" cx="482.12" cy="654.23" r="61.47"/><circle class="cls-13" cx="482.12" cy="654.23" r="33.53"/><circle class="cls-12" cx="482.12" cy="654.23" r="20.12"/><path class="cls-5" d="M573,715.6c0-39.69-31.53-71.87-70.41-71.87s-70.41,32.18-70.41,71.87c0,1.68.06,3.34.17,5H572.87C573,718.94,573,717.28,573,715.6Z" transform="translate(-22 -79.83)"/><path class="cls-15" d="M570.43,714.39c0-38.22-30.35-69.2-67.8-69.2s-67.8,31-67.8,69.2c0,1.62.06,3.22.16,4.8H570.27C570.38,717.58,570.43,716,570.43,714.39Z" transform="translate(-22 -79.83)"/><path class="cls-17" d="M569.92,714.56c0,1.11,0,2.23-.09,3.31,0,.5-.05,1-.08,1.49H434.48c0-.5-.06-1-.08-1.49-.06-1.1-.09-2.24-.09-3.31,0-38.22,30.36-69.21,67.8-69.21S569.92,676.34,569.92,714.56Z" transform="translate(-22 -79.83)"/><path class="cls-5" d="M570.38,717.71c0,.5,0,1-.08,1.49H435c0-.5-.06-1-.08-1.49Z" transform="translate(-22 -79.83)"/><rect class="cls-5" x="383.17" y="640.82" width="182.15" height="15.89" rx="7.94"/><rect class="cls-13" x="383.17" y="639.33" width="182.15" height="15.89" rx="7.94"/><ellipse class="cls-5" cx="744.76" cy="595.03" rx="8.93" ry="22.47" transform="translate(-201.01 279.84) rotate(-24.33)"/><ellipse class="cls-13" cx="745.51" cy="594.29" rx="8.93" ry="22.47" transform="translate(-200.63 280.09) rotate(-24.33)"/><path class="cls-5" d="M724.28,546.35V558H701.56a39.33,39.33,0,0,1-6.32-.51c-2.16-5.49-3.61-8.69-3.61-8.69l20-1.49Z" transform="translate(-22 -79.83)"/><path class="cls-18" d="M724.28,556.5H701.56c-20,0-36.14-14.9-36.14-33.36v-3.09c0-18.42,16.18-33.35,36.14-33.35l22.72,2.07Z" transform="translate(-22 -79.83)"/><path class="cls-19" d="M686.85,506.45s13.59,7.26,5.77,19.56c0,0-9.6,15.73-24.68,14.24l-5.5-33.8S680.51,504.77,686.85,506.45Z" transform="translate(-22 -79.83)"/><path class="cls-5" d="M681.61,505.9a14.45,14.45,0,0,1,11,5.84c2.43,3.35,3.87,8.24,0,14.38,0,0-9.6,15.74-24.68,14.25l-5.5-33.8A160.21,160.21,0,0,1,681.61,505.9Z" transform="translate(-22 -79.83)"/><path class="cls-5" d="M723.54,488.77h4.38a13.87,13.87,0,0,1,13.87,13.87v40a13.87,13.87,0,0,1-13.87,13.88h-4.38Z" transform="translate(-22 -79.83)"/><path class="cls-13" d="M724.28,488.77h4.39a13.87,13.87,0,0,1,13.87,13.87v40a13.87,13.87,0,0,1-13.87,13.88h-4.39Z" transform="translate(-22 -79.83)"/><path class="cls-9" d="M562.93,575.76s3.51,1.28,8.2,3.07c7.45,2.87,18,7.06,21.61,9.35s17.26,6.07,27.45,8.72a89.46,89.46,0,0,0,23.14,2.85c7.93-.07,17.54-.15,20.19-.15a8,8,0,0,1,1.38.11c2.79.46,2.68,2.33,2.61,2.78v.09c-16.39,9.93-36.26,54.39-37.5,61.84-.93,5.59-9.12,21.08-13.16,28.49-1.35,2.48-2.23,4.05-2.23,4.05l5,5.71,14.4,6.46,13.66,6s14.41.74,14.65,0,.25-8.44.25-8.44a41.63,41.63,0,0,1-5-3.79,83,83,0,0,1-9.18-9.38c-7.94-9.44,8-27.57,8-27.57l30.55-39.73s2.48-4.47,14.4-22.35,0-27.57,0-27.57l-21-8.71C643.94,553.93,600.05,543,600.05,543l-.63-.08-9.31-1.16Z" transform="translate(-22 -79.83)"/><path class="cls-20" d="M656.7,709.13s2.61,3.07.66,3.35-7.08-.84-7.08-.84l-32.51-17.13s-3.54-2.52-4.37,2.42-1.4,4.47-1.4,4.47-4.29,9.22,0,11.12S642,722,642,722s37.34,8.48,40.88-1.31-6.33-8.09-6.33-8.09-12.29-3-16.49-8.94C660.05,703.64,654,705.31,656.7,709.13Z" transform="translate(-22 -79.83)"/><path class="cls-10" d="M701.28,576.26l-21-8.71C643.91,553.93,600,543,600,543l-.63-.08-9.31-1.16-27.15,34s3.51,1.28,8.2,3.07c7.45,2.87,18,7.06,21.61,9.35s17.26,6.07,27.45,8.72a89.46,89.46,0,0,0,23.14,2.85c7.93-.07,17.54-.15,20.19-.15a8,8,0,0,1,1.38.11c2.79.46,2.68,2.33,2.61,2.78v.09c-16.39,9.93-36.26,54.39-37.5,61.84-.93,5.59-9.12,21.08-13.16,28.49l-.54,1c-1.08-.17-2.43.21-2.91,3-.84,4.93-1.4,4.47-1.4,4.47s-4.28,9.22,0,11.12S642,722,642,722s37.35,8.48,40.89-1.31-6.33-8.09-6.33-8.09-12.3-3-16.49-8.94a8.36,8.36,0,0,0-1.09.4c-.44-.36-.91-.75-1.41-1.18a83,83,0,0,1-9.18-9.38c-7.94-9.44,8-27.57,8-27.57l30.55-39.73s2.48-4.47,14.4-22.35S701.28,576.26,701.28,576.26Z" transform="translate(-22 -79.83)"/><path class="cls-9" d="M537.93,409.6l1.13,1.43.64.79,3.94,5s9.43,3,17.69,5c8.61,2,15.95,2.92,10.11-1.95-3.62-3-3.86-8.06-2.54-13.48a55.63,55.63,0,0,1,4.74-12q.43-.84.87-1.65a100.31,100.31,0,0,1,6.14-9.92,178.74,178.74,0,0,0-16.46-10.11c-6.82-3.53-12.42-5.07-8.87,1.92,2.28,4.47,1.53,9.49-.6,14.29-.16.38-.34.75-.53,1.14a50.9,50.9,0,0,1-7,10.35A82.09,82.09,0,0,1,537.93,409.6Z" transform="translate(-22 -79.83)"/><polygon class="cls-20" points="563.12 443.26 568.17 447.87 573.05 466.64 564.91 466.64 555.92 454.95 563.12 443.26"/><polygon class="cls-5" points="555.92 454.95 561.36 462.02 564.91 466.64 573.05 466.64 572.22 463.43 568.66 449.75 568.17 447.87 563.12 443.26 556.22 454.45 555.92 454.95"/><polygon class="cls-5" points="555.92 454.95 561.36 462.02 564.91 466.64 573.05 466.64 572.22 463.43 568.66 449.75 568.17 447.87 563.12 443.26 556.22 454.45 555.92 454.95"/><path class="cls-9" d="M550.85,584.19s3.51,1.28,8.2,3.07c7.45,2.87,18,7,21.6,9.35s17.26,6.06,27.46,8.71a89.37,89.37,0,0,0,23.14,2.87c7.93-.08,17.53-.15,20.18-.15a8.06,8.06,0,0,1,1.39.1c2.79.46,2.67,2.33,2.61,2.78v.1c-16.4,9.93-36.27,54.39-37.5,61.84-.93,5.58-9.12,21.07-13.16,28.48-1.36,2.48-2.24,4-2.24,4l5,5.71,14.4,6.45,13.66,6s14.4.75,14.65,0,.25-8.44.25-8.44a40.77,40.77,0,0,1-5-3.78,82.13,82.13,0,0,1-9.18-9.38c-7.94-9.44,8-27.57,8-27.57l30.55-39.73s2.48-4.48,14.4-22.36,0-27.56,0-27.56l-19.12-10.93c-29.8-18.13-71.78-28.56-71.78-28.56l-.62-.08L588.37,544Z" transform="translate(-22 -79.83)"/><path class="cls-5" d="M602.53,705.39l5,5.7,14.4,6.46,13.66,6s14.4.75,14.65,0,.25-8.44.25-8.44a40.77,40.77,0,0,1-5-3.78c-1.54.82-3.29,2.37-1.6,4.77,0,0,2.61,3.07.65,3.36s-7.07-.84-7.07-.84L605,701.44l-.19-.12Z" transform="translate(-22 -79.83)"/><path class="cls-20" d="M644.6,717.55s2.61,3.07.65,3.36-7.08-.85-7.08-.85l-32.5-17.13s-3.54-2.51-4.38,2.42-1.39,4.47-1.39,4.47-4.29,9.22,0,11.13,30,9.43,30,9.43,37.34,8.47,40.88-1.31-6.34-8.1-6.34-8.1-12.29-3-16.48-9C648,712.05,641.91,713.73,644.6,717.55Z" transform="translate(-22 -79.83)"/><path class="cls-5" d="M552.83,387c4.31,3,10.88,7.7,16.49,7.7a28.38,28.38,0,0,0,4.32-.34,102.45,102.45,0,0,1,7-11.58s-32.78-22.85-25.33-8.19C557.78,379.45,555.36,381.84,552.83,387Z" transform="translate(-22 -79.83)"/><path class="cls-9" d="M542.5,366.38a26.76,26.76,0,0,0,12.24,22.5,24.19,24.19,0,0,0,2.62,1.49,26.83,26.83,0,1,0-14.85-24Z" transform="translate(-22 -79.83)"/><path class="cls-5" d="M550.85,584.19s3.51,1.28,8.2,3.07c3-2.6,6-5.1,7.21-5.55,2.74-1,11.68-6.22,11.43-7.71s3.73-7.2,7.2-8.19,1.49-6.21,1.49-6.21,6.71-2.48,8.38-6,6.78-7.95,5-7.7a5.35,5.35,0,0,1-2.11-.82L588.37,544Z" transform="translate(-22 -79.83)"/><path class="cls-20" d="M530.48,575.25s11.43,9.44,12,13.65,8.19,4,8.19,4S562.06,582,564.79,581s11.67-6.21,11.43-7.7,3.72-7.2,7.2-8.2,1.49-6.21,1.49-6.21,6.7-2.48,8.37-6,6.78-7.95,5-7.69c-.49.07-2.07-.75-4.06-1.93-2.45-1.49-5.56-3.51-8.09-5.22-2.69-1.82-4.74-3.26-4.74-3.26s-1.17-.21-3.17-.5c-10.81-1.56-46-5.56-54.2,7.45a20.16,20.16,0,0,0-2.42,5.57C518,561.16,530.48,575.25,530.48,575.25Z" transform="translate(-22 -79.83)"/><path class="cls-5" d="M542.43,545.13s-11.67,6.59-16,6.59S542.43,545.13,542.43,545.13Z" transform="translate(-22 -79.83)"/><path class="cls-5" d="M550.22,550.16s-17.37,5.84-17.37,10.43S531.22,548.3,550.22,550.16Z" transform="translate(-22 -79.83)"/><path class="cls-5" d="M591.82,523.85l-.25.34A.84.84,0,0,0,591.82,523.85Z" transform="translate(-22 -79.83)"/><path class="cls-5" d="M537.93,409.6l1.13,1.43.64.79,3.94,5s9.43,3,17.69,5c8.61,2,15.95,2.92,10.11-1.95-3.62-3-3.86-8.06-2.54-13.48l-.26-.34s.25,5-2.73,5.14c-4,.13-4.06-1.22-7.75-2.78-4.76-2-9.64-5.37-11-8A82.66,82.66,0,0,1,537.93,409.6Z" transform="translate(-22 -79.83)"/><path class="cls-5" d="M521.61,547.28a8.51,8.51,0,0,0,6.39.15c7.69-2.49,19.87-8.48,25.58-5.85,4.57,2.1,23,2,29.8.27,1.69-.44,2.66-1,2.51-1.62a4.37,4.37,0,0,1,.26-2.18,40.25,40.25,0,0,1,4.54-8.46l-.49-1.89-5.06-4.61-6.89,11.18c-10.82-1.57-46-5.56-54.2,7.45A19.58,19.58,0,0,0,521.61,547.28Z" transform="translate(-22 -79.83)"/><path class="cls-21" d="M516.58,541.47a8.45,8.45,0,0,0,10.67,4.47c7.7-2.48,19.87-8.48,25.58-5.85s33,1.87,32.29-1.35,6.71-13.41,6.71-13.41-4.07-.75-6.59-14c-.37-1.94-.74-4.14-1-6.65a84,84,0,0,1-.43-15.45c1-14.38,6-20.25,6-20.25s6.95-7.94,1-18.87c-3.12-5.73-15.72-21.61-15.89-28.69-.16-6.42-6.3-13.89-6.3-13.89s.26,5-2.71,5.12c-4,.13-4.06-1.22-7.75-2.78-5.44-2.29-11-6.34-11.38-9,0,0-22.77-1.14-27.74,21.95s-3.23,35.77-2.48,38.5,7.2,38,2,52.9A51.37,51.37,0,0,0,516.58,541.47Z" transform="translate(-22 -79.83)"/><path class="cls-5" d="M553.7,500.9a58.48,58.48,0,0,0,16.14,17.63,113.76,113.76,0,0,1,13,.87c-.37-1.93-.75-4.14-1-6.64a84,84,0,0,1-.43-15.45,5.63,5.63,0,0,1-2.92-3.61c-1.25-4.23-12.33-24.34-12.33-24.34s-25.92-6.71-26.82,0S547.24,489.72,553.7,500.9Z" transform="translate(-22 -79.83)"/><path class="cls-9" d="M562.29,456.82s15.65,29.6,16.86,33.82a5.71,5.71,0,0,0,5.28,4.22s15.59,3.73,19.31,4.23,36,3.22,36,3.22,8.2.26,9.19-2.72c.91-2.73,16.74-17.06,25.9-4.56a9.1,9.1,0,0,1,1.31,8.14c-1.68,5.36-5.14,13.88-8.85,8.58-5.21-7.45-11.28-5.35-11.28-1.38s-8.34,2.49-11.07,3c-1.49.31-6.62,1.67-11.05,2.86a80.29,80.29,0,0,1-15.77,2.62c-8.8.57-21.77,1.05-26.37-.69-5.54-2.11-15.22-2.59-19.37-2.7a6.35,6.35,0,0,1-3.78-1.36,58.7,58.7,0,0,1-14.33-16.31c-6.46-11.17-19.75-34.32-18.85-41S562.29,456.82,562.29,456.82Z" transform="translate(-22 -79.83)"/><path class="cls-5" d="M557.08,415.8s8.38,13.91,12.26,23.85,8.6,27.32,8.6,27.32l-23.35-2.74-2-3.22s-16.68,10.43-14.69,14.9-4.47-6.71-4-19.37-1.79-35.28,0-40.74S551.59,411.58,557.08,415.8Z" transform="translate(-22 -79.83)"/><path class="cls-21" d="M534,455.05c-.5,12.66,6,23.84,4,19.37s14.69-14.9,14.69-14.9l2,3.22,23.34,2.74s-4.72-17.39-8.6-27.32a151.38,151.38,0,0,0-8-16.4c-2.39-4.34-4.27-7.45-4.27-7.45-3.21-2.48-10-3.93-15.47-3.59a19.64,19.64,0,0,0-2.53.31c-2.23.44-4,1.29-4.83,2.63a3.83,3.83,0,0,0-.3.65C532.16,419.77,534.46,442.38,534,455.05Z" transform="translate(-22 -79.83)"/><path class="cls-5" d="M523.55,489.72s9.87,13.6,12.85,14C536.38,503.72,523.71,500.9,523.55,489.72Z" transform="translate(-22 -79.83)"/><path class="cls-5" d="M523.55,509.09s18.63,18.82,24.59,19S523.55,509.09,523.55,509.09Z" transform="translate(-22 -79.83)"/><path class="cls-5" d="M523.55,517s11.92,14,12.67,14S523.34,526.07,523.55,517Z" transform="translate(-22 -79.83)"/><path class="cls-5" d="M534.23,413.66a16.69,16.69,0,0,0,5.47-1.84c.64-.33,1.27-.7,1.89-1.1a44.37,44.37,0,0,0,6.79-5.59c3.43-3.33,6.85-7,8.27-11.53a22,22,0,0,0,.7-3.22c.85-5.73.13-12.05,4.23-15.95a9.63,9.63,0,0,1,2.61-1.77c5.81-2.76,14.24-1,18.58-6,2.75-3.16,2.69-7.54,4.8-11a23.44,23.44,0,0,1,4.13-4.15,26.82,26.82,0,1,0-37,37.23c-.17.38-.34.75-.53,1.14-5.12,10.43-16.27,19.58-16.27,19.58l1.14,1.43C536.8,411.49,535,412.32,534.23,413.66Z" transform="translate(-22 -79.83)"/><path class="cls-22" d="M581.28,366c-5,5.79-15.65,2.42-21.2,7.71-4.87,4.65-2.93,12.75-4.92,19.18-1.42,4.56-4.84,8.19-8.27,11.53-5,4.86-11.37,9.79-18.2,8.4-4-.83-8-3.86-11.92-2.46-1.94.7-3.34,2.38-4.79,3.86a32.93,32.93,0,0,1-18.34,9.47,7.71,7.71,0,0,1-4.15-.19c-2.08-.85-3.21-3.13-5.11-4.34-3.72-2.39-8.51.06-12.37,2.19a86.63,86.63,0,0,1-71.14,5.12l6-3c-1.29-2.61-4.75-3.18-7-5.1-4.54-3.94-1.87-11.82,2.94-15.44s11-4.87,16-8.24a4.14,4.14,0,0,0,2.14-2.81,4.43,4.43,0,0,0-.81-2.49c-2.65-4.67-5.59-9.69-5-15,.91-8.2,9.86-13.23,18.07-13.81s16.36,1.9,24.59,2.05c3,.05,6.1-.24,8.66-1.78,3.57-2.15,5.36-6.24,7.53-9.79a39.92,39.92,0,0,1,16-14.77c7.45-3.73,15.88-5.08,23.63-8.2,7.92-3.17,15.11-8.19,23.39-10.21,12-3,24.89.91,35.27,7.65,5,3.24,21,13.64,20.86,20.29-.08,4-5.21,6.09-7.16,9.19C584,358.43,584,362.81,581.28,366Z" transform="translate(-22 -79.83)"/><g class="cls-23"><path d="M419.51,385.64a4.5,4.5,0,0,1,.81,2.48,2.64,2.64,0,0,1-.26.91c-2.19-3.86-4.47-7.95-4.83-12.26A45.58,45.58,0,0,0,419.51,385.64Z" transform="translate(-22 -79.83)"/><path d="M399.24,414.62c2.2,1.91,5.67,2.49,7,5.1l-2.14,1.06a23.34,23.34,0,0,1-4.07-2.44,7,7,0,0,1-2.33-5.79A6.42,6.42,0,0,0,399.24,414.62Z" transform="translate(-22 -79.83)"/><path d="M471.29,417.59c3.87-2.13,8.66-4.57,12.38-2.19,1.89,1.22,3,3.5,5.11,4.34a7.77,7.77,0,0,0,4.14.2,33,33,0,0,0,18.31-9.47c1.45-1.49,2.84-3.17,4.8-3.87,3.88-1.39,7.85,1.63,11.92,2.46,6.82,1.39,13.2-3.54,18.2-8.4,3.43-3.33,6.84-7,8.25-11.53,2-6.43.06-14.53,4.94-19.17,5.56-5.3,16.14-1.93,21.19-7.71,2.75-3.16,2.69-7.55,4.81-11,1.79-2.9,6.42-5,7.08-8.45a6.46,6.46,0,0,1,.82,3c-.08,3.95-5.21,6.08-7.16,9.18-2.11,3.44-2.05,7.83-4.8,11-5,5.78-15.65,2.41-21.2,7.71-4.87,4.64-2.93,12.74-4.93,19.17-1.42,4.57-4.83,8.19-8.26,11.53-5,4.86-11.37,9.79-18.2,8.4-4.05-.83-8-3.85-11.92-2.46-1.95.7-3.35,2.38-4.79,3.87a33.17,33.17,0,0,1-18.31,9.47,7.8,7.8,0,0,1-4.15-.2c-2.08-.85-3.22-3.13-5.11-4.34-3.72-2.39-8.51.06-12.37,2.19a86.63,86.63,0,0,1-71.14,5.12l4.16-2.07A86.74,86.74,0,0,0,471.29,417.59Z" transform="translate(-22 -79.83)"/></g><path class="cls-5" d="M655.43,610.91l6.26-3V606.7c0-.46-5,.55-8.87,1.4C655.61,608.6,655.49,610.47,655.43,610.91Z" transform="translate(-22 -79.83)"/><ellipse class="cls-24" cx="638.87" cy="444.2" rx="15.09" ry="18.37"/><polygon class="cls-25" points="493.59 420.3 469.32 444.23 389.55 442.83 411.48 420.3 493.59 420.3"/><polygon class="cls-26" points="493.59 502.16 493.59 420.3 469.32 444.23 469.32 524.34 493.59 502.16"/><polygon class="cls-25" points="389.55 442.83 389.55 524.34 469.32 524.34 469.32 444.23 389.55 442.83"/><polygon class="cls-27" points="389.55 442.83 389.55 524.34 469.32 524.34 469.32 444.23 389.55 442.83"/><polygon class="cls-13" points="462.84 466.66 403.51 456.48 395.77 495.43 456.85 506.65 462.84 466.66"/><polygon class="cls-12" points="483.77 463.26 482.69 431.03 476.46 437.19 477.54 469.49 483.77 463.26"/><polygon class="cls-12" points="403.46 428.54 480.12 429.58 482.69 431.03 476.46 437.19 474.3 435.92 398.37 433.76 403.46 428.54"/><text class="cls-28" transform="translate(563.17 228.09)">Zi</text><text class="cls-28" transform="translate(413.53 487.59)">Zi</text></g></svg>