<svg id="Capa_1" data-name="Capa 1" xmlns="http://www.w3.org/2000/svg" viewBox="0 0 1056.28 808.89"><defs><style>.cls-1{fill:#9696e2;}.cls-1,.cls-17,.cls-18,.cls-2,.cls-24,.cls-3,.cls-6{opacity:0.1;}.cls-1,.cls-11,.cls-17,.cls-18,.cls-2,.cls-28,.cls-3,.cls-6,.cls-9{isolation:isolate;}.cls-2{fill:#7979db;}.cls-29,.cls-3{fill:#ff6366;}.cls-4{fill:#8dd87c;}.cls-12,.cls-5{fill:none;}.cls-5{stroke:#545556;stroke-miterlimit:10;}.cls-7{fill:#ffd037;}.cls-8{fill:#a8a8a8;}.cls-9{opacity:0.2;}.cls-10{fill:#efb7b9;}.cls-11{opacity:0.05;}.cls-13{fill:#65617d;}.cls-14{fill:#dce0ed;}.cls-15{fill:#ede666;}.cls-16{fill:#f7f746;}.cls-17{fill:#e82828;}.cls-18,.cls-28{fill:#fff;}.cls-19{fill:#eace24;}.cls-20{fill:#f4e921;}.cls-21{fill:#444053;}.cls-22{fill:#ffa171;}.cls-23{fill:#965d7b;}.cls-25{fill:#efd620;}.cls-26{fill:#dda2a6;}.cls-27{fill:#b77b7f;}.cls-28{opacity:0.3;}.cls-29{font-size:36px;font-family:GreatVibes-Regular, Great Vibes;}</style></defs><title>deliveryGirlsUno</title><path class="cls-1" d="M1035.84,218.55A257.26,257.26,0,0,0,994,151.79l-581.3-5.73,478.6-67.22a271.79,271.79,0,0,0-97.11-19.26A272.17,272.17,0,0,0,469,48.58a271,271,0,0,0-124.43-30C215.43,18.58,107.81,108,83.67,226.66Z" transform="translate(0 -0.01)"/><path class="cls-2" d="M1056.28,318a251.31,251.31,0,0,0-18.11-93.9L30.71,329.89A253.18,253.18,0,0,0,7.14,389.5l312,46.5L0,469.91C9.6,604.2,124.72,710.24,265.35,710.24c70.79,0,135.12-26.87,182.78-70.69,47.81,44.65,112.76,72.11,184.31,72.11,106.17,0,197.8-60.45,240.47-147.85,85.61-27.17,152.11-95.39,174.87-180.74L653.24,321.88h403C1056.26,320.6,1056.28,319.32,1056.28,318Z" transform="translate(0 -0.01)"/><ellipse class="cls-3" cx="28.11" cy="738.79" rx="25.82" ry="3.55"/><ellipse class="cls-3" cx="127.02" cy="748.82" rx="25.82" ry="3.55"/><ellipse class="cls-3" cx="243.53" cy="735.24" rx="25.82" ry="3.55"/><ellipse class="cls-3" cx="87.43" cy="777.38" rx="18.36" ry="2.52"/><ellipse class="cls-3" cx="190.1" cy="774.86" rx="18.36" ry="2.52"/><path class="cls-4" d="M127.58,748s-36.22-118.72,5.66-166.27c31.34-35.58,66.9-31.32,82.83-26.92a29.45,29.45,0,0,1,19,15.79c5.57,12,4.56,31.51-34.75,54.27-65.82,38.11-69.91,90.38-69.91,90.38Z" transform="translate(0 -0.01)"/><path class="cls-5" d="M210.4,571.68S103.64,605.06,127.58,748" transform="translate(0 -0.01)"/><path class="cls-5" d="M148.05,583.65s14.7,9.9,10,24.79" transform="translate(0 -0.01)"/><path class="cls-5" d="M199.69,592.45s-9-9.14-19.92-4.1" transform="translate(0 -0.01)"/><path class="cls-5" d="M157.49,638.45s-15.78-8-19.86,2" transform="translate(0 -0.01)"/><path class="cls-5" d="M118.44,655.13s11.85-.94,12.07,4.73" transform="translate(0 -0.01)"/><path class="cls-4" d="M126.14,749s42.42-86.29,54.07-84.4c5.53.9,8.08,6.34,9.24,11.81a34.78,34.78,0,0,1-2.31,21.06C181.14,711.2,164.92,737.45,126.14,749Z" transform="translate(0 -0.01)"/><path class="cls-5" d="M179.86,681s-44.52,64.56-53.12,67.39" transform="translate(0 -0.01)"/><line class="cls-5" x1="183.96" y1="691.02" x2="173.57" y2="691.02"/><line class="cls-5" x1="171.51" y1="714.64" x2="155.23" y2="715.34"/><line class="cls-5" x1="161.6" y1="695.75" x2="163.37" y2="704.23"/><line class="cls-5" x1="144.28" y1="721.57" x2="144.6" y2="729.28"/><path class="cls-4" d="M127.37,749S85,662.69,73.3,664.58c-5.53.9-8.08,6.34-9.24,11.81a34.67,34.67,0,0,0,2.32,21C72.39,711.2,88.56,737.45,127.37,749Z" transform="translate(0 -0.01)"/><path class="cls-5" d="M73.62,681s44.52,64.56,53.12,67.39" transform="translate(0 -0.01)"/><line class="cls-5" x1="69.53" y1="691.02" x2="79.92" y2="691.02"/><line class="cls-5" x1="81.97" y1="714.64" x2="98.26" y2="715.34"/><line class="cls-5" x1="91.89" y1="695.75" x2="90.12" y2="704.23"/><line class="cls-5" x1="109.21" y1="721.57" x2="108.89" y2="729.28"/><path class="cls-4" d="M200.2,769.13a7.34,7.34,0,0,0,2.42-3.64,3.24,3.24,0,0,0-1.69-3.71c-1.55-.6-3.21.48-4.46,1.56s-2.7,2.33-4.34,2.1a6.62,6.62,0,0,0,2-6.18,2.57,2.57,0,0,0-.56-1.26c-.86-.92-2.42-.52-3.45.2-3.28,2.3-4.19,6.75-4.21,10.76a20.51,20.51,0,0,1-.06-4.43,4.52,4.52,0,0,0-1.67-3.92,4.85,4.85,0,0,0-2.53-.6c-1.48,0-3.11.09-4.12,1.17-1.25,1.34-.93,3.58.16,5.06a16.33,16.33,0,0,0,4.26,3.41,9.44,9.44,0,0,1,3,2.9,3.38,3.38,0,0,1,.22.52h9.23A25.7,25.7,0,0,0,200.2,769.13Z" transform="translate(0 -0.01)"/><path class="cls-4" d="M38.57,734.38A7.34,7.34,0,0,0,41,730.74,3.26,3.26,0,0,0,39.3,727c-1.55-.59-3.2.49-4.46,1.57s-2.69,2.32-4.34,2.09a6.56,6.56,0,0,0,2-6.18,2.56,2.56,0,0,0-.57-1.25c-.86-.92-2.42-.53-3.45.2-3.28,2.3-4.19,6.75-4.21,10.76a20.59,20.59,0,0,1-.06-4.44,4.5,4.5,0,0,0-1.66-3.91,5,5,0,0,0-2.54-.6c-1.47-.06-3.11.09-4.12,1.17-1.25,1.34-.92,3.58.16,5a15.7,15.7,0,0,0,4.27,3.42,9.34,9.34,0,0,1,3,2.9,3.43,3.43,0,0,1,.23.52h9.23A25.77,25.77,0,0,0,38.57,734.38Z" transform="translate(0 -0.01)"/><path class="cls-4" d="M92.44,769.13a7.34,7.34,0,0,0,2.42-3.64,3.24,3.24,0,0,0-1.69-3.71c-1.55-.6-3.21.48-4.46,1.56s-2.7,2.33-4.34,2.1a6.62,6.62,0,0,0,2-6.18,2.57,2.57,0,0,0-.56-1.26c-.86-.92-2.42-.52-3.45.2-3.28,2.3-4.19,6.75-4.21,10.76a20.51,20.51,0,0,1-.06-4.43c0-1.48-.41-3.13-1.66-3.92a5,5,0,0,0-2.54-.6c-1.47,0-3.11.09-4.12,1.17-1.25,1.34-.93,3.58.16,5.06a16.33,16.33,0,0,0,4.26,3.41,9.44,9.44,0,0,1,3,2.9,3.38,3.38,0,0,1,.22.52h9.23A25.7,25.7,0,0,0,92.44,769.13Z" transform="translate(0 -0.01)"/><path class="cls-4" d="M245.21,698.88s3.46,4.53-1.6,11.36-9.22,12.6-7.54,16.86c0,0,7.63-12.69,13.84-12.87S252,706.51,245.21,698.88Z" transform="translate(0 -0.01)"/><path class="cls-6" d="M245.21,698.88a5.9,5.9,0,0,1,.71,1.42c6.06,7.12,9.28,13.76,3.46,13.93-5.43.16-11.93,9.86-13.49,12.31.05.19.11.37.18.56,0,0,7.63-12.69,13.84-12.87S252,706.51,245.21,698.88Z" transform="translate(0 -0.01)"/><path class="cls-7" d="M251.64,704.65c0,1.59-.18,2.88-.4,2.88s-.4-1.29-.4-2.88.23-.84.45-.84S251.64,703.06,251.64,704.65Z" transform="translate(0 -0.01)"/><path class="cls-7" d="M253.85,706.55c-1.4.76-2.62,1.22-2.72,1s.94-1,2.34-1.73.84-.21.95,0S255.25,705.79,253.85,706.55Z" transform="translate(0 -0.01)"/><path class="cls-4" d="M226.93,698.88s-3.46,4.53,1.6,11.36,9.23,12.6,7.54,16.86c0,0-7.63-12.69-13.84-12.87S220.14,706.51,226.93,698.88Z" transform="translate(0 -0.01)"/><path class="cls-6" d="M226.93,698.88a5.52,5.52,0,0,0-.7,1.42c-6.06,7.12-9.29,13.76-3.47,13.93,5.43.16,11.94,9.86,13.5,12.31-.06.19-.12.37-.19.56,0,0-7.63-12.69-13.84-12.87S220.14,706.51,226.93,698.88Z" transform="translate(0 -0.01)"/><path class="cls-7" d="M220.5,704.65c0,1.59.18,2.88.4,2.88s.4-1.29.4-2.88-.22-.84-.44-.84S220.5,703.06,220.5,704.65Z" transform="translate(0 -0.01)"/><path class="cls-7" d="M218.29,706.55c1.4.76,2.62,1.22,2.73,1s-1-1-2.34-1.73-.85-.21-1,0S216.9,705.79,218.29,706.55Z" transform="translate(0 -0.01)"/><path class="cls-8" d="M221.6,726.5s9.68-.29,12.59-2.37,14.88-4.56,15.61-1.23,14.53,16.56,3.61,16.65-25.37-1.7-28.28-3.47S221.6,726.5,221.6,726.5Z" transform="translate(0 -0.01)"/><path class="cls-9" d="M253.61,738.39c-10.92.09-25.38-1.7-28.29-3.47-2.22-1.35-3.1-6.19-3.39-8.43h-.33s.62,7.81,3.53,9.58,17.36,3.56,28.28,3.47c3.16,0,4.24-1.15,4.18-2.81C257.14,737.75,256,738.37,253.61,738.39Z" transform="translate(0 -0.01)"/><ellipse class="cls-3" cx="612.39" cy="793.95" rx="329.42" ry="14.94"/><path class="cls-10" d="M578.83,347.29s21,39.73,22.63,45.4a7.66,7.66,0,0,0,7.08,5.66s20.92,5,25.92,5.67,48.34,4.33,48.34,4.33,11,.34,12.33-3.66c1.22-3.66,22.47-22.89,34.77-6.11a12.23,12.23,0,0,1,1.78,10.92c-2.26,7.2-6.9,18.63-11.88,11.52-7-10-15.14-7.19-15.14-1.86s-11.2,3.35-14.86,4.1c-2,.41-8.88,2.24-14.83,3.84a108,108,0,0,1-21.12,3.51c-11.81.77-29.22,1.41-35.39-.92-7.45-2.83-20.44-3.48-26-3.63a8.51,8.51,0,0,1-5.07-1.82,79.07,79.07,0,0,1-19.25-21.89c-8.67-15-26.5-46.06-25.3-55.06S578.83,347.29,578.83,347.29Z" transform="translate(0 -0.01)"/><path class="cls-11" d="M578.83,347.29s21,39.73,22.63,45.4a7.66,7.66,0,0,0,7.08,5.66s20.92,5,25.92,5.67,48.34,4.33,48.34,4.33,11,.34,12.33-3.66c1.22-3.66,22.47-22.89,34.77-6.11a12.23,12.23,0,0,1,1.78,10.92c-2.26,7.2-6.9,18.63-11.88,11.52-7-10-15.14-7.19-15.14-1.86s-11.2,3.35-14.86,4.1c-2,.41-8.88,2.24-14.83,3.84a108,108,0,0,1-21.12,3.51c-11.81.77-29.22,1.41-35.39-.92-7.45-2.83-20.44-3.48-26-3.63a8.51,8.51,0,0,1-5.07-1.82,79.07,79.07,0,0,1-19.25-21.89c-8.67-15-26.5-46.06-25.3-55.06S578.83,347.29,578.83,347.29Z" transform="translate(0 -0.01)"/><path class="cls-12" d="M819.74,647.45c-9.51,10.34-16.51,14.41-16.18,3.5,1-33-57-182.2-57-182.2l17.15-1.3C801.14,531.94,815.06,598.26,819.74,647.45Z" transform="translate(0 -0.01)"/><path class="cls-13" d="M901.55,719.45a82.5,82.5,0,0,1-164.69,7c-.12-1.34-.21-2.68-.25-4v-.07q-.06-1.49-.06-3a82.5,82.5,0,1,1,165,0Z" transform="translate(0 -0.01)"/><circle class="cls-14" cx="819.05" cy="719.39" r="45"/><circle class="cls-13" cx="819.05" cy="719.39" r="27"/><path class="cls-13" d="M602.39,562.73l-198.66,4V537.45c1.78-23.57,26-31.84,48-34.43a137.76,137.76,0,0,1,51.33,3.85c42.15,11.16,69,13.32,82.23,13.53a12.61,12.61,0,0,1,12.2,10.26c.63,3.35,1.25,7,1.83,10.6.44,2.82.86,5.6,1.24,8.19C601.66,556.91,602.39,562.73,602.39,562.73Z" transform="translate(0 -0.01)"/><path class="cls-15" d="M760.88,724.73H348.19A16.24,16.24,0,0,1,333.14,715c-3.11-7.43,1.24-12.17,5.88-15a46.74,46.74,0,0,0,20.32-24.86c4.4-13,8.7-33.34,10.39-65.12,1.74-32.87,13.64-49.12,26.5-57h0c16.61-10.16,34.82-6.35,34.82-6.35l167.33,1.34a32.22,32.22,0,0,1,8.17,5.33c14.91,13.88-6.83,32-6.83,32-46.67,49.33-11.34,99.33-11.34,99.33H674A78.83,78.83,0,0,0,718.85,671c11.57-8,16-15.73,17.78-20.41,1.32-3.58,2.66-7.15,4.26-10.61,22.46-48.71-4.63-128-16.32-157.58-2.9-7.37-4.85-11.67-4.85-11.67l26.85-2,17-1.29h.17c37.42,64.54,51.33,130.86,56,180,.44,4.63.8,9.12,1.09,13.43a60,60,0,0,1-56,63.75C763.51,724.69,762.2,724.73,760.88,724.73Z" transform="translate(0 -0.01)"/><path class="cls-6" d="M600.57,549.45H403.73v-8.19h195.6C599.77,544,600.19,546.81,600.57,549.45Z" transform="translate(0 -0.01)"/><path class="cls-6" d="M606.56,553.45H397.82a4.09,4.09,0,0,1-1.58-.32c16.61-10.16,34.82-6.35,34.82-6.35l167.33,1.34A32.22,32.22,0,0,1,606.56,553.45Z" transform="translate(0 -0.01)"/><rect class="cls-14" x="320.69" y="543.2" width="291.7" height="8.19" rx="4.09"/><path class="cls-6" d="M819.74,647.45c-9.51,10.34-16.51,14.41-16.18,3.5,1-33-57-182.2-57-182.2l17.15-1.3C801.14,531.94,815.06,598.26,819.74,647.45Z" transform="translate(0 -0.01)"/><path class="cls-6" d="M901.05,710.36c-9.85,2.36-22,4.76-37,7q-8.37,1.23-18,2.36c-15.33,1.82-33.06,3.41-53.54,4.63q-8.7.52-18.07.95-17.55.8-37.57,1.22l-.25-4v-.07c18.65-7.53,48-27.62,52.72-80a82.54,82.54,0,0,1,111.72,67.94Z" transform="translate(0 -0.01)"/><path class="cls-16" d="M721.06,724.73s94.7-10.28,62.08-154.57c0,0,46.79,42.9,75.9,66.74s81,56.71,81,56.71S909.06,722.56,721.06,724.73Z" transform="translate(0 -0.01)"/><path class="cls-17" d="M721.06,724.73s94.7-10.28,62.08-154.57c0,0,46.79,42.9,75.9,66.74s81,56.71,81,56.71S909.06,722.56,721.06,724.73Z" transform="translate(0 -0.01)"/><circle class="cls-13" cx="468.06" cy="719.39" r="82.5"/><circle class="cls-14" cx="468.06" cy="719.39" r="45"/><circle class="cls-13" cx="468.06" cy="719.39" r="27"/><path class="cls-6" d="M560.56,694.62c0-53.27-42.31-96.46-94.5-96.46s-94.5,43.19-94.5,96.46q0,3.38.23,6.69H560.33Q560.56,698,560.56,694.62Z" transform="translate(0 -0.01)"/><path class="cls-16" d="M557.06,693c0-51.3-40.74-92.89-91-92.89s-91,41.59-91,92.89c0,2.17.08,4.31.22,6.44H556.84C557,697.27,557.06,695.13,557.06,693Z" transform="translate(0 -0.01)"/><path class="cls-18" d="M556.37,693.22c0,1.49,0,3-.11,4.44,0,.67-.07,1.33-.11,2H374.59c0-.67-.08-1.33-.11-2-.07-1.47-.11-3-.11-4.44,0-51.3,40.74-92.89,91-92.89S556.37,641.92,556.37,693.22Z" transform="translate(0 -0.01)"/><path class="cls-6" d="M557,697.45c0,.67-.07,1.33-.11,2H375.28c0-.67-.08-1.33-.11-2Z" transform="translate(0 -0.01)"/><rect class="cls-6" x="335.25" y="701.39" width="244.48" height="21.33" rx="10.66"/><rect class="cls-14" x="335.25" y="699.39" width="244.48" height="21.33" rx="10.66"/><ellipse class="cls-6" cx="791.04" cy="532.8" rx="11.98" ry="30.16" transform="translate(-149.26 373.21) rotate(-24.33)"/><ellipse class="cls-14" cx="792.04" cy="531.8" rx="11.98" ry="30.16" transform="translate(-148.75 373.54) rotate(-24.33)"/><path class="cls-6" d="M763.56,467.45v15.67h-30.5a52.33,52.33,0,0,1-8.48-.68c-2.9-7.37-4.85-11.67-4.85-11.67l26.85-2Z" transform="translate(0 -0.01)"/><path class="cls-19" d="M763.56,481.08h-30.5c-26.79,0-48.5-20-48.5-44.77v-4.15c0-24.72,21.71-44.76,48.5-44.76l30.5,2.77Z" transform="translate(0 -0.01)"/><path class="cls-20" d="M713.31,413.9s18.25,9.75,7.75,26.25c0,0-12.88,21.12-33.13,19.12l-7.37-45.37S704.81,411.65,713.31,413.9Z" transform="translate(0 -0.01)"/><path class="cls-6" d="M706.28,413.17A19.4,19.4,0,0,1,721.12,421c3.25,4.5,5.19,11.06-.06,19.31,0,0-12.88,21.12-33.13,19.12l-7.37-45.37S695.73,412.6,706.28,413.17Z" transform="translate(0 -0.01)"/><path class="cls-6" d="M762.56,390.17h5.88a18.62,18.62,0,0,1,18.62,18.62v53.68a18.62,18.62,0,0,1-18.62,18.62h-5.88V390.17Z" transform="translate(0 -0.01)"/><path class="cls-14" d="M763.56,390.17h5.88a18.62,18.62,0,0,1,18.62,18.62v53.68a18.62,18.62,0,0,1-18.62,18.62h-5.88V390.17Z" transform="translate(0 -0.01)"/><path class="cls-10" d="M547,506.93s4.71,1.72,11,4.12c10,3.85,24.1,9.47,29,12.55s23.17,8.14,36.85,11.7a120,120,0,0,0,31.06,3.83c10.64-.1,23.53-.2,27.09-.2a10.59,10.59,0,0,1,1.86.14c3.74.62,3.59,3.13,3.5,3.73v.13c-22,13.33-48.67,73-50.33,83-1.25,7.5-12.24,28.29-17.66,38.23-1.82,3.33-3,5.44-3,5.44l6.67,7.66,19.33,8.67,18.33,8s19.34,1,19.67,0,.33-11.33.33-11.33a54.93,54.93,0,0,1-6.68-5.08,110.15,110.15,0,0,1-12.32-12.59c-10.66-12.67,10.67-37,10.67-37l41-53.33s3.33-6,19.33-30,0-37,0-37l-28.16-11.69C655.72,477.63,596.81,463,596.81,463l-.84-.11-12.49-1.56Z" transform="translate(0 -0.01)"/><path class="cls-21" d="M672.85,685.93s3.5,4.13.88,4.5-9.5-1.12-9.5-1.12l-43.63-23s-4.75-3.38-5.87,3.25-1.88,6-1.88,6-5.75,12.37,0,14.93,40.29,12.69,40.29,12.69,50.13,11.38,54.88-1.75-8.5-10.87-8.5-10.87-16.5-4-22.13-12C677.35,678.56,669.23,680.81,672.85,685.93Z" transform="translate(0 -0.01)"/><path class="cls-11" d="M732.68,507.6l-28.16-11.69C655.68,477.63,596.77,463,596.77,463l-.84-.11-12.49-1.56L547,506.93s4.71,1.72,11,4.12c10,3.85,24.1,9.47,29,12.55s23.17,8.14,36.85,11.7a120,120,0,0,0,31.06,3.83c10.64-.1,23.53-.2,27.09-.2a10.59,10.59,0,0,1,1.86.14c3.74.62,3.59,3.13,3.5,3.73v.13c-22,13.33-48.67,73-50.33,83-1.25,7.5-12.24,28.29-17.66,38.23l-.73,1.34c-1.45-.24-3.26.28-3.9,4.06-1.13,6.62-1.88,6-1.88,6s-5.75,12.37,0,14.93,40.26,12.69,40.26,12.69,50.13,11.38,54.88-1.75-8.5-10.87-8.5-10.87-16.5-4-22.13-12a12.13,12.13,0,0,0-1.46.54c-.59-.48-1.22-1-1.89-1.58a110.15,110.15,0,0,1-12.32-12.59c-10.66-12.67,10.67-37,10.67-37l41-53.33s3.33-6,19.33-30S732.68,507.6,732.68,507.6Z" transform="translate(0 -0.01)"/><path class="cls-10" d="M513.44,283.91l1.52,1.92.85,1.07,5.3,6.67s12.65,4.06,23.74,6.69c11.55,2.73,21.4,3.92,13.57-2.61-4.86-4-5.18-10.83-3.41-18.1a74.65,74.65,0,0,1,6.36-16.1q.58-1.14,1.17-2.22a133.9,133.9,0,0,1,8.24-13.31,237.66,237.66,0,0,0-22.09-13.57c-9.16-4.74-16.68-6.81-11.91,2.57,3.06,6,2.06,12.74-.8,19.19-.22.51-.46,1-.71,1.53a69,69,0,0,1-9.44,13.89A109.73,109.73,0,0,1,513.44,283.91Z" transform="translate(0 -0.01)"/><polygon class="cls-21" points="576.78 436.23 583.56 442.42 590.11 467.62 579.18 467.62 567.11 451.92 576.78 436.23"/><polygon class="cls-6" points="567.11 451.92 574.41 461.41 579.18 467.62 590.11 467.62 588.99 463.31 584.22 444.95 583.56 442.42 576.78 436.23 567.52 451.25 567.11 451.92"/><polygon class="cls-6" points="567.11 451.92 574.41 461.41 579.18 467.62 590.11 467.62 588.99 463.31 584.22 444.95 583.56 442.42 576.78 436.23 567.52 451.25 567.11 451.92"/><path class="cls-10" d="M530.78,518.24s4.71,1.72,11,4.12c10,3.85,24.1,9.47,29,12.55s23.17,8.14,36.85,11.7a120.05,120.05,0,0,0,31.06,3.84c10.64-.1,23.53-.2,27.09-.2a10.59,10.59,0,0,1,1.86.14c3.74.62,3.59,3.13,3.5,3.73v.13c-22,13.33-48.67,73-50.33,83-1.25,7.5-12.24,28.29-17.66,38.23-1.82,3.33-3,5.44-3,5.44l6.67,7.66,19.32,8.66,18.33,8s19.34,1,19.67,0,.33-11.33.33-11.33a54.93,54.93,0,0,1-6.68-5.08,110.15,110.15,0,0,1-12.32-12.59c-10.66-12.67,10.67-37,10.67-37l41-53.33s3.33-6,19.33-30,0-37,0-37l-25.66-14.67c-40-24.33-96.34-38.33-96.34-38.33l-.84-.11-12.49-1.56Z" transform="translate(0 -0.01)"/><path class="cls-6" d="M600.14,680.91l6.67,7.66,19.33,8.67,18.33,8s19.34,1,19.67,0,.33-11.33.33-11.33a54.93,54.93,0,0,1-6.68-5.08c-2.07,1.11-4.42,3.19-2.15,6.41,0,0,3.5,4.12.88,4.5s-9.5-1.12-9.5-1.12l-43.63-23-.25-.17Z" transform="translate(0 -0.01)"/><path class="cls-21" d="M656.61,697.24s3.5,4.12.87,4.5-9.5-1.13-9.5-1.13l-43.62-23s-4.75-3.37-5.88,3.25-1.87,6-1.87,6-5.75,12.38,0,14.94,40.25,12.65,40.25,12.65,50.12,11.37,54.87-1.75-8.5-10.88-8.5-10.88-16.5-4-22.12-12C661.14,689.86,653,692.11,656.61,697.24Z" transform="translate(0 -0.01)"/><path class="cls-6" d="M533.44,253.57c5.78,4,14.6,10.33,22.13,10.33a36.39,36.39,0,0,0,5.8-.46,136.22,136.22,0,0,1,9.41-15.53s-44-30.67-34-11C540.08,243.45,536.83,246.66,533.44,253.57Z" transform="translate(0 -0.01)"/><path class="cls-10" d="M519.57,225.9A35.94,35.94,0,0,0,536,256.1a32.18,32.18,0,0,0,3.52,2,36,36,0,1,0-19.93-32.22Z" transform="translate(0 -0.01)"/><path class="cls-6" d="M530.78,518.24s4.71,1.72,11,4.12c4-3.48,8-6.84,9.69-7.45,3.67-1.34,15.67-8.34,15.34-10.34s5-9.66,9.66-11,2-8.33,2-8.33,9-3.33,11.24-8,9.1-10.67,6.76-10.33a7.18,7.18,0,0,1-2.84-1.11l-12.49-1.56Z" transform="translate(0 -0.01)"/><path class="cls-21" d="M503.44,506.24s15.34,12.67,16.05,18.33,11,5.34,11,5.34,15.34-14.67,19-16,15.67-8.34,15.34-10.34,5-9.66,9.66-11,2-8.33,2-8.33,9-3.33,11.24-8,9.1-10.67,6.76-10.33c-.66.09-2.77-1-5.45-2.59-3.29-2-7.46-4.71-10.86-7-3.6-2.44-6.35-4.38-6.35-4.38s-1.57-.28-4.26-.67c-14.51-2.1-61.77-7.46-72.74,10a26.56,26.56,0,0,0-3.25,7.47C486.62,487.34,503.44,506.24,503.44,506.24Z" transform="translate(0 -0.01)"/><path class="cls-6" d="M519.48,465.82s-15.66,8.84-21.5,8.84S519.48,465.82,519.48,465.82Z" transform="translate(0 -0.01)"/><path class="cls-6" d="M529.94,472.57s-23.32,7.84-23.32,14S504.44,470.07,529.94,472.57Z" transform="translate(0 -0.01)"/><path class="cls-6" d="M585.77,437.26l-.33.45A1.06,1.06,0,0,0,585.77,437.26Z" transform="translate(0 -0.01)"/><path class="cls-6" d="M513.44,283.91l1.52,1.92.85,1.07,5.3,6.67s12.65,4.06,23.74,6.69c11.55,2.73,21.4,3.92,13.57-2.61-4.86-4-5.18-10.83-3.41-18.1l-.35-.45S555,285.84,551,286c-5.38.17-5.45-1.64-10.41-3.73-6.39-2.7-12.94-7.21-14.78-10.72A109.82,109.82,0,0,1,513.44,283.91Z" transform="translate(0 -0.01)"/><path class="cls-6" d="M491.53,468.71a11.52,11.52,0,0,0,8.58.2c10.33-3.34,26.67-11.38,34.33-7.86,6.14,2.82,30.87,2.74,40,.37,2.27-.59,3.57-1.32,3.37-2.18a6,6,0,0,1,.35-2.93c1.06-3.39,3.94-8.1,6.09-11.35l-.66-2.53-6.78-6.19-9.26,15c-14.51-2.1-61.77-7.46-72.74,10A26.64,26.64,0,0,0,491.53,468.71Z" transform="translate(0 -0.01)"/><path class="cls-22" d="M484.78,460.91s4,9.33,14.33,6,26.67-11.38,34.33-7.86,44.34,2.52,43.34-1.81,9-18,9-18-5.46-1-8.84-18.83c-.5-2.6-1-5.56-1.33-8.92a113.17,113.17,0,0,1-.58-20.74c1.35-19.3,8.11-27.18,8.11-27.18s9.33-10.66,1.33-25.33c-4.19-7.69-21.1-29-21.33-38.5-.21-8.62-8.45-18.64-8.45-18.64s.35,6.74-3.64,6.87c-5.38.17-5.45-1.64-10.41-3.73-7.29-3.08-14.78-8.51-15.27-12.14,0,0-30.56-1.53-37.23,29.47s-4.33,48-3.33,51.67,9.66,51,2.66,71S484.78,460.91,484.78,460.91Z" transform="translate(0 -0.01)"/><path class="cls-6" d="M534.61,406.45a78.4,78.4,0,0,0,21.66,23.67,150.67,150.67,0,0,1,17.5,1.17c-.5-2.6-1-5.56-1.33-8.92a113.17,113.17,0,0,1-.58-20.74,7.55,7.55,0,0,1-3.92-4.84c-1.67-5.67-16.54-32.67-16.54-32.67s-34.79-9-36,0S525.94,391.45,534.61,406.45Z" transform="translate(0 -0.01)"/><path class="cls-10" d="M546.14,347.29s21,39.73,22.63,45.4a7.66,7.66,0,0,0,7.08,5.66s20.92,5,25.92,5.67,48.37,4.33,48.37,4.33,11,.34,12.33-3.66c1.22-3.66,22.47-22.89,34.77-6.11A12.23,12.23,0,0,1,699,409.5c-2.26,7.2-6.9,18.63-11.88,11.52-7-10-15.14-7.19-15.14-1.86s-11.2,3.35-14.86,4.1c-2,.41-8.88,2.24-14.83,3.84a107.59,107.59,0,0,1-21.17,3.51c-11.81.77-29.22,1.41-35.39-.92-7.44-2.83-20.43-3.48-26-3.63a8.51,8.51,0,0,1-5.07-1.82,79,79,0,0,1-19.24-21.89c-8.67-15-26.5-46.06-25.3-55.06S546.14,347.29,546.14,347.29Z" transform="translate(0 -0.01)"/><path class="cls-6" d="M539.14,292.24s11.25,18.67,16.46,32,11.54,36.67,11.54,36.67l-31.34-3.67-2.66-4.33s-22.38,14-19.71,20-6-9-5.33-26-2.41-47.34,0-54.67S531.77,286.57,539.14,292.24Z" transform="translate(0 -0.01)"/><path class="cls-22" d="M508.14,344.91c-.67,17,8,32,5.33,26s19.71-20,19.71-20l2.63,4.33,31.33,3.67s-6.33-23.34-11.54-36.67a204,204,0,0,0-10.72-22c-3.21-5.83-5.74-10-5.74-10-4.31-3.33-13.46-5.28-20.76-4.82a25.71,25.71,0,0,0-3.39.41c-3,.59-5.42,1.73-6.49,3.53a4.66,4.66,0,0,0-.4.88C505.7,297.57,508.78,327.91,508.14,344.91Z" transform="translate(0 -0.01)"/><path class="cls-6" d="M494.14,391.45s13.25,18.25,17.25,18.75C511.36,410.24,494.36,406.45,494.14,391.45Z" transform="translate(0 -0.01)"/><path class="cls-6" d="M494.14,417.45s25,25.25,33,25.5S494.14,417.45,494.14,417.45Z" transform="translate(0 -0.01)"/><path class="cls-6" d="M494.14,428s16,18.75,17,18.75S493.86,440.24,494.14,428Z" transform="translate(0 -0.01)"/><path class="cls-6" d="M508.47,289.36a22.18,22.18,0,0,0,7.34-2.46c.86-.45,1.71-.95,2.54-1.48a60.14,60.14,0,0,0,9.12-7.5c4.6-4.47,9.19-9.35,11.09-15.48a27.73,27.73,0,0,0,.94-4.32c1.14-7.69.18-16.18,5.68-21.41a12.84,12.84,0,0,1,3.51-2.37c7.8-3.71,19.11-1.31,24.93-8,3.7-4.24,3.61-10.13,6.45-14.74,1.24-2,3.52-3.73,5.54-5.57A36,36,0,1,0,536,256c-.22.51-.46,1-.71,1.53-6.87,14-21.83,26.28-21.83,26.28l1.52,1.92C511.93,286.45,509.54,287.56,508.47,289.36Z" transform="translate(0 -0.01)"/><path class="cls-23" d="M571.62,225.36c-6.77,7.76-21,3.24-28.45,10.35-6.54,6.23-3.94,17.1-6.61,25.73-1.9,6.13-6.49,11-11.09,15.48-6.7,6.52-15.27,13.14-24.43,11.27-5.43-1.11-10.75-5.17-16-3.3-2.61.94-4.48,3.2-6.43,5.19A44.31,44.31,0,0,1,454,302.79a10.44,10.44,0,0,1-5.57-.26c-2.8-1.14-4.31-4.2-6.86-5.83-5-3.2-11.42.08-16.61,2.94a116.23,116.23,0,0,1-95.48,6.87l8.09-4c-1.72-3.51-6.37-4.28-9.33-6.85-6.1-5.29-2.51-15.87,3.94-20.72s14.8-6.54,21.48-11.07c1.36-.92,2.74-2.14,2.87-3.77a6,6,0,0,0-1.09-3.34c-3.56-6.27-7.5-13-6.7-20.17,1.22-11,13.23-17.76,24.26-18.53s21.95,2.55,33,2.74c4,.07,8.19-.32,11.62-2.39,4.79-2.88,7.2-8.37,10.11-13.14a53.66,53.66,0,0,1,21.5-19.82c10-5,21.32-6.82,31.72-11,10.62-4.26,20.28-11,31.39-13.71,16.13-4,33.41,1.23,47.34,10.27,6.71,4.35,28.14,18.31,28,27.24-.11,5.3-7,8.17-9.61,12.33C575.23,215.23,575.32,221.12,571.62,225.36Z" transform="translate(0 -0.01)"/><g class="cls-24"><path d="M354.5,251.75a6.12,6.12,0,0,1,1.09,3.34,3.44,3.44,0,0,1-.35,1.21c-2.94-5.18-6-10.67-6.49-16.45C350.05,244,352.34,248,354.5,251.75Z" transform="translate(0 -0.01)"/><path d="M327.3,290.65c2.95,2.57,7.6,3.34,9.33,6.85l-2.86,1.42a32.17,32.17,0,0,1-5.47-3.27,9.41,9.41,0,0,1-3.12-7.77A8.57,8.57,0,0,0,327.3,290.65Z" transform="translate(0 -0.01)"/><path d="M424,294.64c5.19-2.86,11.62-6.14,16.61-2.94,2.54,1.63,4.06,4.69,6.86,5.83a10.41,10.41,0,0,0,5.56.26,44.37,44.37,0,0,0,24.58-12.71c1.94-2,3.81-4.25,6.43-5.19,5.22-1.87,10.54,2.19,16,3.3,9.16,1.87,17.72-4.75,24.43-11.27,4.6-4.47,9.18-9.35,11.08-15.48,2.68-8.63.08-19.5,6.62-25.73,7.47-7.11,21.67-2.59,28.45-10.35,3.69-4.24,3.61-10.13,6.45-14.74,2.4-3.89,8.62-6.65,9.5-11.34a8.64,8.64,0,0,1,1.11,4c-.11,5.3-7,8.17-9.61,12.33-2.84,4.61-2.76,10.5-6.45,14.74-6.78,7.76-21,3.24-28.45,10.35-6.54,6.23-3.94,17.1-6.62,25.73-1.9,6.13-6.48,11-11.08,15.48-6.71,6.52-15.27,13.14-24.43,11.27-5.44-1.11-10.76-5.17-16-3.3-2.62.94-4.49,3.2-6.43,5.19a44.37,44.37,0,0,1-24.58,12.71,10.41,10.41,0,0,1-5.56-.26c-2.8-1.14-4.32-4.2-6.86-5.83-5-3.2-11.42.08-16.61,2.94a116.23,116.23,0,0,1-95.48,6.87l5.59-2.77A116.45,116.45,0,0,0,424,294.64Z" transform="translate(0 -0.01)"/></g><path class="cls-6" d="M671.14,554.11l8.41-4.07v-1.59c0-.61-6.71.74-11.91,1.89C671.38,551,671.23,553.51,671.14,554.11Z" transform="translate(0 -0.01)"/><ellipse class="cls-25" cx="678.45" cy="437.49" rx="20.26" ry="24.65"/><polygon class="cls-26" points="483.45 405.41 450.88 437.53 343.81 435.66 373.25 405.41 483.45 405.41"/><polygon class="cls-27" points="483.45 515.29 483.45 405.41 450.88 437.53 450.88 545.05 483.45 515.29"/><polygon class="cls-26" points="343.81 435.66 343.81 545.05 450.88 545.05 450.88 437.53 343.81 435.66"/><polygon class="cls-28" points="343.81 435.66 343.81 545.05 450.88 545.05 450.88 437.53 343.81 435.66"/><polygon class="cls-14" points="442.18 467.64 362.55 453.97 352.17 506.25 434.15 521.31 442.18 467.64"/><polygon class="cls-13" points="470.28 463.08 468.83 419.82 460.46 428.08 461.92 471.44 470.28 463.08"/><polygon class="cls-13" points="362.48 416.48 465.37 417.87 468.83 419.82 460.46 428.08 457.57 426.38 355.66 423.49 362.48 416.48"/><text class="cls-29" transform="translate(374.6 500.43)">Zi</text></svg>