<svg id="Capa_1" enable-background="new 0 0 512 512" height="512" viewBox="0 0 512 512" width="512" xmlns="http://www.w3.org/2000/svg"><g><g><g><g><g><path d="m144.772 76.502h30v62.092h-30z" fill="#afd1fd"/></g></g><g><g><path d="m342.937 76.502h30v62.092h-30z" fill="#afd1fd"/></g></g></g><g><path d="m48.2 300.792v55.488l94.841 24.771 112.959-24.771 47.554-56.477-47.554-99.082z" fill="#edf5ff"/><path d="m463.8 300.792-207.8-100.071v155.559l113.94 34.679 93.86-34.679z" fill="#d6e8fd"/><path d="m102.092 0v86.446h153.908l25.756-44.257-25.756-42.189z" fill="#edf5ff"/></g><path d="m256 0h153.908v86.446h-153.908z" fill="#d6e8fd"/><g><g><path d="m48.2 426.628v85.372h123.575l131.779-35.564-47.554-49.808-115.932-25.761z" fill="#edf5ff"/><path d="m256 426.628v49.808l84.215 35.564h123.585v-85.372l-89.897-30.715z" fill="#d6e8fd"/></g><g><path d="m170.894 356.28h-122.694v70.348h207.8v-39.235z" fill="#afd1fd"/><path d="m463.8 356.28h-122.925l-82.348 32.037-2.527-.924v39.235h207.8z" fill="#8abcfd"/></g><g><path d="m170.794 356.28v155.72h85.206l31.701-73.482-31.701-82.238z" fill="#c8885e"/><path d="m256 356.28h85.206v155.72h-85.206z" fill="#9f5f4e"/></g></g><g><g><path d="m256 427.884h35.512v30h-35.512z" fill="#714437"/></g></g></g><g><path d="m102.4 124.545h-82.399l-12.062 114.858 50.502 22.909 56.32-22.909 15.399-33.728z" fill="#fd445f"/><path d="m5.628 261.409c-3.008 28.643 19.452 53.586 48.253 53.586 26.796 0 48.519-21.723 48.519-48.519l12.361-27.074h-106.822z" fill="#e1105a"/><path d="m256 124.545h-51.2l-22.126 76.176 13.569 38.682 78.392 37.091 5.14-57.939z" fill="#fd445f"/><path d="m491.999 124.545h-82.399l-26.78 81.13 14.856 33.728 64.4 17.454 41.985-17.454z" fill="#e1105a"/></g><g><path d="m330.307 189.822-23.107-65.277h-51.2v114.858h58.819z" fill="#e1105a"/></g><path d="m204.8 263.796c0 28.277 22.923 51.2 51.2 51.2l18.635-75.593h-78.392z" fill="#e1105a"/><path d="m256 239.403v75.593c28.277 0 51.2-22.923 51.2-51.2l7.619-24.393z" fill="#b20844"/><g><path d="m102.4 124.545v114.858l48.768 24 53.632-24v-114.858z" fill="#fedd61"/></g><path d="m102.4 263.796c0 28.277 22.923 51.2 51.2 51.2 28.277 0 51.2-22.923 51.2-51.2v-24.393h-102.4z" fill="#fed200"/><path d="m504.061 239.403h-106.385l11.924 27.074c0 26.796 21.723 48.519 48.519 48.519 28.801 0 51.262-24.943 48.253-53.586z" fill="#b20844"/><path d="m409.6 124.545h-102.4v114.858l50.149 29.454 52.251-29.454z" fill="#fed200"/><path d="m307.2 239.403v24.393c0 28.277 22.923 51.2 51.2 51.2 28.277 0 51.2-22.923 51.2-51.2v-24.393z" fill="#f8b400"/></g></svg>